<?xml version="1.0" encoding="UTF-8" standalone="no"?>
<svg
   width="30.48mm"
   height="130.39mm"
   viewBox="0 0 86.4 369.61"
   version="1.1"
   id="svg142"
   sodipodi:docname="DJFilter_info.svg"
   inkscape:version="1.4 (e7c3feb1, 2024-10-09)"
   xmlns:inkscape="http://www.inkscape.org/namespaces/inkscape"
   xmlns:sodipodi="http://sodipodi.sourceforge.net/DTD/sodipodi-0.dtd"
   xmlns="http://www.w3.org/2000/svg"
   xmlns:svg="http://www.w3.org/2000/svg">
  <defs
     id="defs142" />
  <sodipodi:namedview
     id="namedview142"
     pagecolor="#ffffff"
     bordercolor="#000000"
     borderopacity="0.25"
     inkscape:showpageshadow="2"
     inkscape:pageopacity="0.0"
     inkscape:pagecheckerboard="0"
     inkscape:deskcolor="#d1d1d1"
     inkscape:document-units="mm"
     inkscape:zoom="1.7816103"
     inkscape:cx="25.538694"
     inkscape:cy="302.81594"
     inkscape:window-width="1200"
     inkscape:window-height="1186"
     inkscape:window-x="2240"
     inkscape:window-y="25"
     inkscape:window-maximized="0"
     inkscape:current-layer="layer2" />
  <g
     inkscape:groupmode="layer"
     id="layer2"
     inkscape:label="faceplate">
    <g
       id="panel">
      <g
         id="g1">
        <rect
           y="0"
           width="86.4"
           height="364.25"
           style="fill: #ededee;"
           id="rect1" />
        <path
           d="M86.15.25v363.75H.25V.25h85.9M86.4,0H0v364.25h86.4V0h0Z"
           style="fill: #9c9c9e;"
           id="path1" />
      </g>
    </g>
    <path
       d="M76.55,340.47c2.81,0,6.16-2.95,6.16-6.07l.18-22.41c0-8.09-6.35-14.65-14.18-14.65H17.69c-7.83,0-14.18,6.56-14.18,14.65v20.46c0,2.69.57,6.59,2.85,7.15.76.29,1.59.46,2.47.46h10.15l46.06.4h11.5Z"
       id="path2" />
    <g
       id="g8">
      <path
         d="M14.81,254.79c-.2.12-.4.21-.6.28-.21.07-.41.12-.62.15-.21.03-.43.04-.65.04-.42,0-.79-.06-1.12-.2-.33-.13-.61-.32-.86-.58s-.42-.55-.54-.89-.18-.71-.18-1.12c0-.47.07-.87.21-1.22.14-.35.34-.64.6-.87.26-.23.55-.4.87-.51.33-.11.67-.17,1.03-.17.54,0,1.15.14,1.84.41v1.44c-.24-.17-.47-.3-.7-.42-.23-.11-.5-.17-.81-.17-.28,0-.54.06-.78.19s-.43.3-.58.54c-.15.23-.22.5-.22.81,0,.27.06.52.19.75.13.23.31.41.53.54.23.13.49.2.77.2.23,0,.45-.03.66-.1.21-.06.38-.13.52-.21s.29-.17.44-.28v1.37Z"
         id="path3" />
      <path
         d="M18.98,255.2h-1.24v-.57c-.17.21-.36.37-.55.48s-.42.16-.69.16c-.53,0-.87-.17-1.03-.53-.16-.35-.23-.75-.23-1.19v-2.34h1.24v2.15c0,.22.03.41.1.57.06.16.2.24.41.24.18,0,.33-.06.43-.18.11-.12.21-.27.32-.45v-2.34h1.24v3.98Z"
         id="path4" />
      <path
         d="M22.25,254.97c-.13.07-.31.14-.53.2-.23.07-.44.1-.65.1-.89,0-1.34-.49-1.34-1.48v-1.59h-.56v-.25l1.66-1.92h.14v1.19h1.18v.98h-1.18v1.27c0,.15,0,.27.02.36.02.09.06.17.14.23.07.06.19.09.34.09.2,0,.46-.09.78-.28v1.1Z"
         id="path5" />
      <path
         d="M26.38,253.21c0,.4-.08.75-.23,1.06-.15.31-.38.55-.68.73-.3.18-.67.27-1.1.27s-.8-.09-1.1-.27-.53-.42-.68-.73c-.15-.31-.23-.66-.23-1.06,0-.3.04-.57.13-.82.08-.24.21-.46.38-.65.17-.19.38-.33.63-.44.25-.1.54-.15.87-.15s.62.05.88.15c.25.1.46.25.63.43.17.19.29.4.38.65.08.25.13.52.13.82ZM25.07,253.21c0-.31-.06-.56-.18-.74-.12-.18-.3-.27-.52-.27s-.4.09-.52.27c-.12.18-.18.43-.18.74s.06.56.18.74c.12.18.29.27.52.27s.4-.09.52-.27c.12-.18.18-.43.18-.74Z"
         id="path6" />
      <path
         d="M29.08,250.79c-.19-.05-.34-.07-.46-.07-.13,0-.24.05-.31.15-.07.1-.11.24-.11.42v.14h.63v.95h-.63v2.82h-1.24v-2.82h-.57v-.95h.57v-.07c0-.28.05-.54.14-.79.1-.25.25-.45.48-.62.22-.16.52-.24.88-.24.21,0,.41.03.62.07v1.01Z"
         id="path7" />
      <path
         d="M31.4,250.79c-.19-.05-.34-.07-.46-.07-.13,0-.24.05-.31.15-.07.1-.11.24-.11.42v.14h.63v.95h-.63v2.82h-1.24v-2.82h-.57v-.95h.57v-.07c0-.28.05-.54.14-.79.1-.25.25-.45.48-.62.22-.16.52-.24.88-.24.21,0,.41.03.62.07v1.01Z"
         id="path8" />
    </g>
    <g
       id="g11">
      <path
         d="M64.69,255.2h-1.54l-.38-.96c-.14-.35-.26-.61-.37-.77-.11-.16-.22-.27-.32-.31-.1-.04-.24-.07-.4-.07h-.16v2.11h-1.44v-5.41h2.44c.39,0,.72.09.97.27.25.18.43.4.54.66.11.26.17.51.17.74,0,.27-.05.5-.14.69-.09.19-.19.33-.29.41-.1.09-.22.17-.35.25.15.1.28.22.38.36.1.14.24.42.41.85l.48,1.18ZM62.74,251.5c0-.25-.07-.42-.22-.52-.14-.1-.38-.15-.71-.15h-.3v1.3h.31c.35,0,.59-.04.72-.13.13-.09.19-.25.19-.5Z"
         id="path9" />
      <path
         d="M68.45,253.55h-2.46c.05.24.17.44.35.59.19.15.4.23.64.23.42,0,.88-.13,1.38-.4v.87c-.18.11-.4.2-.66.29-.26.09-.59.13-.98.13-.43,0-.8-.09-1.1-.27-.3-.18-.53-.43-.68-.74-.15-.31-.22-.67-.22-1.06s.08-.74.22-1.05c.15-.31.38-.55.68-.73.3-.18.67-.26,1.1-.26.28,0,.56.07.82.21.26.14.48.37.65.68.17.32.26.72.26,1.22v.28ZM67.29,252.86c0-.25-.06-.46-.17-.61-.11-.15-.27-.23-.48-.23s-.37.08-.5.23c-.13.16-.19.36-.19.61h1.34Z"
         id="path10" />
      <path
         d="M71.51,254.04c0,.37-.12.66-.35.89-.24.23-.58.34-1.05.34-.26,0-.49-.03-.69-.08-.2-.05-.42-.13-.66-.23v-1c.21.14.39.24.54.31.15.07.32.11.5.11.31,0,.46-.1.46-.29,0-.06-.02-.12-.07-.17-.04-.05-.12-.11-.23-.17-.11-.06-.26-.14-.45-.23-.23-.11-.42-.27-.58-.46-.16-.19-.24-.43-.24-.71,0-.2.05-.39.16-.57.11-.18.27-.33.48-.45.21-.12.48-.17.78-.17.07,0,.17,0,.28.02s.26.04.43.09c.17.05.34.12.49.21v.97c-.07-.05-.13-.09-.18-.12-.05-.03-.12-.07-.2-.11-.08-.04-.18-.08-.29-.11-.11-.03-.23-.05-.34-.05-.14,0-.24.03-.29.09s-.08.12-.08.19.03.13.08.18c.05.06.18.13.37.21.28.12.5.24.66.37.17.13.28.27.35.42.07.15.1.33.1.54Z"
         id="path11" />
    </g>
    <g
       id="g14">
      <path
         d="M16.15,294.29h-1.44v-5.41h1.44v5.41Z"
         id="path12" />
      <path
         d="M20.61,294.29h-1.24v-2.14c0-.22-.03-.41-.09-.57-.06-.16-.2-.24-.41-.24-.1,0-.19.02-.27.06s-.15.1-.21.17c-.06.07-.11.13-.15.2-.04.06-.08.13-.13.2v2.34h-1.24v-3.98h1.24v.57c.19-.24.39-.4.59-.5.2-.1.41-.14.65-.14.84,0,1.26.57,1.26,1.71v2.34Z"
         id="path13" />
      <path
         d="M26.7,294.29h-3.62v-5.41h1.44v4.12h2.18v1.3Z"
         id="path14" />
    </g>
    <g
       id="g17">
      <path
         d="M61.1,294.29h-1.44v-5.41h1.44v5.41Z"
         id="path15" />
      <path
         d="M65.56,294.29h-1.24v-2.14c0-.22-.03-.41-.09-.57-.06-.16-.2-.24-.41-.24-.1,0-.19.02-.27.06-.08.04-.15.1-.21.17-.06.07-.11.13-.15.2s-.08.13-.13.2v2.34h-1.24v-3.98h1.24v.57c.19-.24.39-.4.59-.5.2-.1.41-.14.65-.14.84,0,1.26.57,1.26,1.71v2.34Z"
         id="path16" />
      <path
         d="M72.64,294.29h-1.54l-.38-.96c-.14-.35-.26-.61-.37-.77-.11-.16-.22-.27-.32-.31-.1-.05-.24-.07-.4-.07h-.16v2.11h-1.44v-5.41h2.44c.39,0,.72.09.97.27.25.18.43.4.54.66.11.26.17.51.17.74,0,.27-.05.5-.14.69-.09.19-.19.33-.29.41-.1.09-.22.17-.35.25.15.1.28.22.38.36.1.14.24.42.41.85l.48,1.18ZM70.69,290.58c0-.25-.07-.42-.22-.52-.14-.1-.38-.15-.71-.15h-.3v1.3h.31c.35,0,.59-.04.72-.13.13-.09.19-.25.19-.5Z"
         id="path17" />
    </g>
    <g
       id="g21">
      <path
         d="M16.62,333.13c0,.51-.1.97-.31,1.39-.21.42-.51.76-.92,1.01s-.9.38-1.48.38-1.09-.13-1.5-.39c-.41-.26-.71-.6-.91-1.03-.2-.42-.3-.88-.3-1.36s.1-.94.3-1.37c.2-.42.5-.76.91-1.02.41-.26.91-.39,1.5-.39.44,0,.83.07,1.18.22s.63.35.85.6c.22.25.39.55.51.89.11.34.17.69.17,1.06ZM15.16,333.13c0-.2-.03-.39-.08-.56s-.13-.31-.24-.44c-.11-.12-.24-.22-.39-.29-.15-.07-.33-.1-.53-.1-.39,0-.69.13-.91.38-.22.26-.33.59-.33,1s.11.75.33,1.01c.22.26.52.38.91.38.26,0,.49-.06.67-.18.19-.12.33-.28.42-.49.1-.21.14-.45.14-.72Z"
         style="fill: #fff;"
         id="path18" />
      <path
         d="M20.72,335.84h-1.24v-.57c-.17.21-.36.37-.55.48s-.42.16-.69.16c-.53,0-.87-.17-1.03-.53-.16-.35-.23-.75-.23-1.19v-2.34h1.24v2.15c0,.22.03.41.1.57.06.16.2.24.41.24.18,0,.33-.06.43-.18.11-.12.21-.27.32-.45v-2.34h1.24v3.98Z"
         style="fill: #fff;"
         id="path19" />
      <path
         d="M23.99,335.61c-.13.07-.31.14-.53.2-.23.07-.44.1-.65.1-.89,0-1.34-.49-1.34-1.48v-1.59h-.56v-.25l1.66-1.92h.14v1.19h1.18v.98h-1.18v1.27c0,.15,0,.27.02.36.02.09.06.17.14.23.07.06.19.09.34.09.2,0,.46-.09.78-.28v1.1Z"
         style="fill: #fff;"
         id="path20" />
      <path
         d="M29.88,335.84h-3.62v-5.41h1.44v4.12h2.18v1.3Z"
         style="fill: #fff;"
         id="path21" />
    </g>
    <g
       id="g25">
      <path
         d="M61.57,333.13c0,.51-.1.97-.31,1.39-.21.42-.51.76-.92,1.01-.41.25-.9.38-1.48.38s-1.09-.13-1.5-.39c-.41-.26-.71-.6-.91-1.03-.2-.42-.3-.88-.3-1.36s.1-.94.3-1.37c.2-.42.5-.76.91-1.02.41-.26.91-.39,1.5-.39.44,0,.83.07,1.18.22s.63.35.85.6.39.55.5.89c.12.34.17.69.17,1.06ZM60.11,333.13c0-.2-.03-.39-.08-.56s-.13-.31-.24-.44c-.11-.12-.24-.22-.39-.29-.15-.07-.33-.1-.53-.1-.38,0-.69.13-.91.38-.22.26-.33.59-.33,1s.11.75.33,1.01c.22.26.52.38.91.38.26,0,.49-.06.67-.18.19-.12.33-.28.42-.49.1-.21.14-.45.14-.72Z"
         style="fill: #fff;"
         id="path22" />
      <path
         d="M65.67,335.84h-1.24v-.57c-.17.21-.36.37-.55.48-.19.11-.42.16-.69.16-.53,0-.87-.17-1.03-.53-.16-.35-.23-.75-.23-1.19v-2.34h1.24v2.15c0,.22.03.41.09.57.06.16.2.24.41.24.18,0,.33-.06.43-.18s.21-.27.32-.45v-2.34h1.24v3.98Z"
         style="fill: #fff;"
         id="path23" />
      <path
         d="M68.94,335.61c-.13.07-.31.14-.53.2-.23.07-.44.1-.65.1-.89,0-1.34-.49-1.34-1.48v-1.59h-.56v-.25l1.66-1.92h.14v1.19h1.18v.98h-1.18v1.27c0,.15,0,.27.02.36.02.09.06.17.14.23.07.06.19.09.34.09.2,0,.46-.09.78-.28v1.1Z"
         style="fill: #fff;"
         id="path24" />
      <path
         d="M75.82,335.84h-1.54l-.38-.96c-.14-.35-.26-.61-.37-.77-.11-.16-.22-.27-.32-.31-.1-.04-.24-.07-.4-.07h-.16v2.11h-1.44v-5.41h2.44c.39,0,.72.09.97.27.25.18.43.4.54.66.11.26.17.51.17.74,0,.27-.05.5-.14.69-.09.19-.19.33-.29.41-.1.09-.22.17-.35.25.15.1.28.22.38.36.1.14.24.42.41.85l.48,1.18ZM73.87,332.13c0-.25-.07-.42-.22-.52-.14-.1-.38-.15-.7-.15h-.3v1.3h.31c.35,0,.59-.04.72-.13.13-.09.19-.25.19-.5Z"
         style="fill: #fff;"
         id="path25" />
    </g>
    <g
       id="g36">
      <path
         d="M35,18.05c-.37,0-.71-.17-.97-.47-.51-.6-.52-1.54-.04-2.16l6.97-8.88c.38-.48,1.05-.65,1.57-.39.5.25.79.82.79,1.45v4.77l4.64-5.85c.38-.48,1.01-.64,1.53-.38.5.25.83.81.83,1.44v8.82c0,.86-.61,1.57-1.36,1.57s-1.36-.7-1.36-1.57v-4.79l-4.64,5.85c-.38.48-1.01.64-1.54.38-.5-.24-.83-.81-.83-1.44v-4.67l-4.61,5.8c-.26.32-.62.51-1,.51h0Z"
         style="fill: #2cabe1;"
         id="path34" />
      <path
         d="M35,18.05c-.75,0-1.35-.7-1.35-1.57v-4.93l-2.26,2.84c-.5.63-1.44.65-1.97.04-.51-.6-.52-1.53-.03-2.15l4.61-5.76c.26-.32.63-.5,1-.5.18,0,.37.04.54.12.5.25.82.81.82,1.44v8.89c0,.86-.61,1.57-1.36,1.57h0Z"
         style="fill: #ea2228;"
         id="path35" />
      <path
         d="M51.6,18.07h0c-.35,0-.68-.15-.94-.42-.76-.78-.14-1.84.29-2.3l1.95-2.36-1.26-.02c-.56-.01-1.04-.4-1.24-1-.19-.56-.07-1.21.29-1.64l3.16-3.83c.23-.28.55-.48,1.13-.47.33,0,.67.17.92.4.71.66.29,1.7-.07,2.2l-1.04,1.26,1.26.02c.56.01,1.04.4,1.24,1,.19.56.07,1.21-.29,1.64l-4.1,4.97c-.35.35-.65.55-1.3.54h0Z"
         style="fill: #00a650;"
         id="path36" />
    </g>
    <g
       id="text">
      <g
         id="g31">
        <path
           d="M14.81,254.79c-.2.12-.4.21-.6.28-.21.07-.41.12-.62.15-.21.03-.43.04-.65.04-.42,0-.79-.06-1.12-.2-.33-.13-.61-.32-.86-.58s-.42-.55-.54-.89-.18-.71-.18-1.12c0-.47.07-.87.21-1.22.14-.35.34-.64.6-.87.26-.23.55-.4.87-.51.33-.11.67-.17,1.03-.17.54,0,1.15.14,1.84.41v1.44c-.24-.17-.47-.3-.7-.42-.23-.11-.5-.17-.81-.17-.28,0-.54.06-.78.19s-.43.3-.58.54c-.15.23-.22.5-.22.81,0,.27.06.52.19.75.13.23.31.41.53.54.23.13.49.2.77.2.23,0,.45-.03.66-.1.21-.06.38-.13.52-.21s.29-.17.44-.28v1.37Z"
           id="path26" />
        <path
           d="M18.98,255.2h-1.24v-.57c-.17.21-.36.37-.55.48s-.42.16-.69.16c-.53,0-.87-.17-1.03-.53-.16-.35-.23-.75-.23-1.19v-2.34h1.24v2.15c0,.22.03.41.1.57.06.16.2.24.41.24.18,0,.33-.06.43-.18.11-.12.21-.27.32-.45v-2.34h1.24v3.98Z"
           id="path27" />
        <path
           d="M22.25,254.97c-.13.07-.31.14-.53.2-.23.07-.44.1-.65.1-.89,0-1.34-.49-1.34-1.48v-1.59h-.56v-.25l1.66-1.92h.14v1.19h1.18v.98h-1.18v1.27c0,.15,0,.27.02.36.02.09.06.17.14.23.07.06.19.09.34.09.2,0,.46-.09.78-.28v1.1Z"
           id="path28" />
        <path
           d="M26.38,253.21c0,.4-.08.75-.23,1.06-.15.31-.38.55-.68.73-.3.18-.67.27-1.1.27s-.8-.09-1.1-.27-.53-.42-.68-.73c-.15-.31-.23-.66-.23-1.06,0-.3.04-.57.13-.82.08-.24.21-.46.38-.65.17-.19.38-.33.63-.44.25-.1.54-.15.87-.15s.62.05.88.15c.25.1.46.25.63.43.17.19.29.4.38.65.08.25.13.52.13.82ZM25.07,253.21c0-.31-.06-.56-.18-.74-.12-.18-.3-.27-.52-.27s-.4.09-.52.27c-.12.18-.18.43-.18.74s.06.56.18.74c.12.18.29.27.52.27s.4-.09.52-.27c.12-.18.18-.43.18-.74Z"
           id="path29" />
        <path
           d="M29.08,250.79c-.19-.05-.34-.07-.46-.07-.13,0-.24.05-.31.15-.07.1-.11.24-.11.42v.14h.63v.95h-.63v2.82h-1.24v-2.82h-.57v-.95h.57v-.07c0-.28.05-.54.14-.79.1-.25.25-.45.48-.62.22-.16.52-.24.88-.24.21,0,.41.03.62.07v1.01Z"
           id="path30" />
        <path
           d="M31.4,250.79c-.19-.05-.34-.07-.46-.07-.13,0-.24.05-.31.15-.07.1-.11.24-.11.42v.14h.63v.95h-.63v2.82h-1.24v-2.82h-.57v-.95h.57v-.07c0-.28.05-.54.14-.79.1-.25.25-.45.48-.62.22-.16.52-.24.88-.24.21,0,.41.03.62.07v1.01Z"
           id="path31" />
      </g>
      <g
         id="g37">
        <path
           d="M64.69,255.2h-1.54l-.38-.96c-.14-.35-.26-.61-.37-.77-.11-.16-.22-.27-.32-.31-.1-.04-.24-.07-.4-.07h-.16v2.11h-1.44v-5.41h2.44c.39,0,.72.09.97.27.25.18.43.4.54.66.11.26.17.51.17.74,0,.27-.05.5-.14.69-.09.19-.19.33-.29.41-.1.09-.22.17-.35.25.15.1.28.22.38.36.1.14.24.42.41.85l.48,1.18ZM62.74,251.5c0-.25-.07-.42-.22-.52-.14-.1-.38-.15-.71-.15h-.3v1.3h.31c.35,0,.59-.04.72-.13.13-.09.19-.25.19-.5Z"
           id="path32" />
        <path
           d="M68.45,253.55h-2.46c.05.24.17.44.35.59.19.15.4.23.64.23.42,0,.88-.13,1.38-.4v.87c-.18.11-.4.2-.66.29-.26.09-.59.13-.98.13-.43,0-.8-.09-1.1-.27-.3-.18-.53-.43-.68-.74-.15-.31-.22-.67-.22-1.06s.08-.74.22-1.05c.15-.31.38-.55.68-.73.3-.18.67-.26,1.1-.26.28,0,.56.07.82.21.26.14.48.37.65.68.17.32.26.72.26,1.22v.28ZM67.29,252.86c0-.25-.06-.46-.17-.61-.11-.15-.27-.23-.48-.23s-.37.08-.5.23c-.13.16-.19.36-.19.61h1.34Z"
           id="path33" />
        <path
           d="M71.51,254.04c0,.37-.12.66-.35.89-.24.23-.58.34-1.05.34-.26,0-.49-.03-.69-.08-.2-.05-.42-.13-.66-.23v-1c.21.14.39.24.54.31.15.07.32.11.5.11.31,0,.46-.1.46-.29,0-.06-.02-.12-.07-.17-.04-.05-.12-.11-.23-.17-.11-.06-.26-.14-.45-.23-.23-.11-.42-.27-.58-.46-.16-.19-.24-.43-.24-.71,0-.2.05-.39.16-.57.11-.18.27-.33.48-.45.21-.12.48-.17.78-.17.07,0,.17,0,.28.02s.26.04.43.09c.17.05.34.12.49.21v.97c-.07-.05-.13-.09-.18-.12-.05-.03-.12-.07-.2-.11-.08-.04-.18-.08-.29-.11-.11-.03-.23-.05-.34-.05-.14,0-.24.03-.29.09s-.08.12-.08.19.03.13.08.18c.05.06.18.13.37.21.28.12.5.24.66.37.17.13.28.27.35.42.07.15.1.33.1.54Z"
           id="path37" />
      </g>
      <g
         id="g40">
        <path
           d="M16.15,294.29h-1.44v-5.41h1.44v5.41Z"
           id="path38" />
        <path
           d="M20.61,294.29h-1.24v-2.14c0-.22-.03-.41-.09-.57-.06-.16-.2-.24-.41-.24-.1,0-.19.02-.27.06s-.15.1-.21.17c-.06.07-.11.13-.15.2-.04.06-.08.13-.13.2v2.34h-1.24v-3.98h1.24v.57c.19-.24.39-.4.59-.5.2-.1.41-.14.65-.14.84,0,1.26.57,1.26,1.71v2.34Z"
           id="path39" />
        <path
           d="M26.7,294.29h-3.62v-5.41h1.44v4.12h2.18v1.3Z"
           id="path40" />
      </g>
      <g
         id="g43">
        <path
           d="M61.1,294.29h-1.44v-5.41h1.44v5.41Z"
           id="path41" />
        <path
           d="M65.56,294.29h-1.24v-2.14c0-.22-.03-.41-.09-.57-.06-.16-.2-.24-.41-.24-.1,0-.19.02-.27.06-.08.04-.15.1-.21.17-.06.07-.11.13-.15.2s-.08.13-.13.2v2.34h-1.24v-3.98h1.24v.57c.19-.24.39-.4.59-.5.2-.1.41-.14.65-.14.84,0,1.26.57,1.26,1.71v2.34Z"
           id="path42" />
        <path
           d="M72.64,294.29h-1.54l-.38-.96c-.14-.35-.26-.61-.37-.77-.11-.16-.22-.27-.32-.31-.1-.05-.24-.07-.4-.07h-.16v2.11h-1.44v-5.41h2.44c.39,0,.72.09.97.27.25.18.43.4.54.66.11.26.17.51.17.74,0,.27-.05.5-.14.69-.09.19-.19.33-.29.41-.1.09-.22.17-.35.25.15.1.28.22.38.36.1.14.24.42.41.85l.48,1.18ZM70.69,290.58c0-.25-.07-.42-.22-.52-.14-.1-.38-.15-.71-.15h-.3v1.3h.31c.35,0,.59-.04.72-.13.13-.09.19-.25.19-.5Z"
           id="path43" />
      </g>
      <g
         id="g47">
        <path
           d="M16.62,333.13c0,.51-.1.97-.31,1.39-.21.42-.51.76-.92,1.01s-.9.38-1.48.38-1.09-.13-1.5-.39c-.41-.26-.71-.6-.91-1.03-.2-.42-.3-.88-.3-1.36s.1-.94.3-1.37c.2-.42.5-.76.91-1.02.41-.26.91-.39,1.5-.39.44,0,.83.07,1.18.22s.63.35.85.6c.22.25.39.55.51.89.11.34.17.69.17,1.06ZM15.16,333.13c0-.2-.03-.39-.08-.56s-.13-.31-.24-.44c-.11-.12-.24-.22-.39-.29-.15-.07-.33-.1-.53-.1-.39,0-.69.13-.91.38-.22.26-.33.59-.33,1s.11.75.33,1.01c.22.26.52.38.91.38.26,0,.49-.06.67-.18.19-.12.33-.28.42-.49.1-.21.14-.45.14-.72Z"
           style="fill: #fff;"
           id="path44" />
        <path
           d="M20.72,335.84h-1.24v-.57c-.17.21-.36.37-.55.48s-.42.16-.69.16c-.53,0-.87-.17-1.03-.53-.16-.35-.23-.75-.23-1.19v-2.34h1.24v2.15c0,.22.03.41.1.57.06.16.2.24.41.24.18,0,.33-.06.43-.18.11-.12.21-.27.32-.45v-2.34h1.24v3.98Z"
           style="fill: #fff;"
           id="path45" />
        <path
           d="M23.99,335.61c-.13.07-.31.14-.53.2-.23.07-.44.1-.65.1-.89,0-1.34-.49-1.34-1.48v-1.59h-.56v-.25l1.66-1.92h.14v1.19h1.18v.98h-1.18v1.27c0,.15,0,.27.02.36.02.09.06.17.14.23.07.06.19.09.34.09.2,0,.46-.09.78-.28v1.1Z"
           style="fill: #fff;"
           id="path46" />
        <path
           d="M29.88,335.84h-3.62v-5.41h1.44v4.12h2.18v1.3Z"
           style="fill: #fff;"
           id="path47" />
      </g>
      <g
         id="g51">
        <path
           d="M61.57,333.13c0,.51-.1.97-.31,1.39-.21.42-.51.76-.92,1.01-.41.25-.9.38-1.48.38s-1.09-.13-1.5-.39c-.41-.26-.71-.6-.91-1.03-.2-.42-.3-.88-.3-1.36s.1-.94.3-1.37c.2-.42.5-.76.91-1.02.41-.26.91-.39,1.5-.39.44,0,.83.07,1.18.22s.63.35.85.6.39.55.5.89c.12.34.17.69.17,1.06ZM60.11,333.13c0-.2-.03-.39-.08-.56s-.13-.31-.24-.44c-.11-.12-.24-.22-.39-.29-.15-.07-.33-.1-.53-.1-.38,0-.69.13-.91.38-.22.26-.33.59-.33,1s.11.75.33,1.01c.22.26.52.38.91.38.26,0,.49-.06.67-.18.19-.12.33-.28.42-.49.1-.21.14-.45.14-.72Z"
           style="fill: #fff;"
           id="path48" />
        <path
           d="M65.67,335.84h-1.24v-.57c-.17.21-.36.37-.55.48-.19.11-.42.16-.69.16-.53,0-.87-.17-1.03-.53-.16-.35-.23-.75-.23-1.19v-2.34h1.24v2.15c0,.22.03.41.09.57.06.16.2.24.41.24.18,0,.33-.06.43-.18s.21-.27.32-.45v-2.34h1.24v3.98Z"
           style="fill: #fff;"
           id="path49" />
        <path
           d="M68.94,335.61c-.13.07-.31.14-.53.2-.23.07-.44.1-.65.1-.89,0-1.34-.49-1.34-1.48v-1.59h-.56v-.25l1.66-1.92h.14v1.19h1.18v.98h-1.18v1.27c0,.15,0,.27.02.36.02.09.06.17.14.23.07.06.19.09.34.09.2,0,.46-.09.78-.28v1.1Z"
           style="fill: #fff;"
           id="path50" />
        <path
           d="M75.82,335.84h-1.54l-.38-.96c-.14-.35-.26-.61-.37-.77-.11-.16-.22-.27-.32-.31-.1-.04-.24-.07-.4-.07h-.16v2.11h-1.44v-5.41h2.44c.39,0,.72.09.97.27.25.18.43.4.54.66.11.26.17.51.17.74,0,.27-.05.5-.14.69-.09.19-.19.33-.29.41-.1.09-.22.17-.35.25.15.1.28.22.38.36.1.14.24.42.41.85l.48,1.18ZM73.87,332.13c0-.25-.07-.42-.22-.52-.14-.1-.38-.15-.7-.15h-.3v1.3h.31c.35,0,.59-.04.72-.13.13-.09.19-.25.19-.5Z"
           style="fill: #fff;"
           id="path51" />
      </g>
      <g
         id="g54">
        <path
           d="M35,18.05c-.37,0-.71-.17-.97-.47-.51-.6-.52-1.54-.04-2.16l6.97-8.88c.38-.48,1.05-.65,1.57-.39.5.25.79.82.79,1.45v4.77l4.64-5.85c.38-.48,1.01-.64,1.53-.38.5.25.83.81.83,1.44v8.82c0,.86-.61,1.57-1.36,1.57s-1.36-.7-1.36-1.57v-4.79l-4.64,5.85c-.38.48-1.01.64-1.54.38-.5-.24-.83-.81-.83-1.44v-4.67l-4.61,5.8c-.26.32-.62.51-1,.51h0Z"
           style="fill: #2cabe1;"
           id="path52" />
        <path
           d="M35,18.05c-.75,0-1.35-.7-1.35-1.57v-4.93l-2.26,2.84c-.5.63-1.44.65-1.97.04-.51-.6-.52-1.53-.03-2.15l4.61-5.76c.26-.32.63-.5,1-.5.18,0,.37.04.54.12.5.25.82.81.82,1.44v8.89c0,.86-.61,1.57-1.36,1.57h0Z"
           style="fill: #ea2228;"
           id="path53" />
        <path
           d="M51.6,18.07h0c-.35,0-.68-.15-.94-.42-.76-.78-.14-1.84.29-2.3l1.95-2.36-1.26-.02c-.56-.01-1.04-.4-1.24-1-.19-.56-.07-1.21.29-1.64l3.16-3.83c.23-.28.55-.48,1.13-.47.33,0,.67.17.92.4.71.66.29,1.7-.07,2.2l-1.04,1.26,1.26.02c.56.01,1.04.4,1.24,1,.19.56.07,1.21-.29,1.64l-4.1,4.97c-.35.35-.65.55-1.3.54h0Z"
           style="fill: #00a650;"
           id="path54" />
      </g>
    </g>
    <g
       id="g45">
      <path
         d="M27.28,144.68h-1.93l-.47-1.2c-.17-.44-.33-.76-.46-.96s-.27-.33-.4-.39-.3-.09-.5-.09h-.2v2.64h-1.8v-6.77h3.06c.49,0,.9.11,1.21.34.31.23.54.5.68.83.14.33.21.63.21.93,0,.34-.06.63-.17.87-.12.24-.24.41-.37.52s-.27.21-.43.31c.19.13.35.28.47.45s.29.53.51,1.06l.6,1.47ZM24.84,140.05c0-.31-.09-.53-.27-.65s-.47-.19-.88-.19h-.38v1.63h.39c.44,0,.74-.05.9-.16.16-.11.24-.32.24-.63Z"
         id="path55" />
      <path
         d="M31.98,142.61h-3.08c.06.3.21.55.44.74s.5.29.8.29c.52,0,1.1-.17,1.73-.5v1.09c-.23.13-.5.25-.82.36s-.73.16-1.23.16c-.54,0-1-.11-1.38-.34s-.66-.54-.85-.93-.28-.83-.28-1.33.09-.93.28-1.31.47-.69.85-.91.84-.33,1.38-.33c.35,0,.7.09,1.03.26.33.17.6.46.82.85.21.4.32.91.32,1.53v.35ZM30.52,141.75c0-.32-.07-.57-.21-.76-.14-.19-.34-.29-.6-.29s-.47.1-.62.29-.24.45-.24.76h1.67Z"
         id="path56" />
      <path
         d="M35.8,143.23c0,.46-.15.83-.44,1.11-.29.28-.73.43-1.31.43-.32,0-.61-.03-.86-.1-.25-.07-.53-.16-.82-.29v-1.25c.26.17.49.3.68.39s.4.13.63.13c.39,0,.58-.12.58-.36,0-.08-.03-.15-.08-.22-.06-.06-.15-.14-.29-.21-.14-.08-.32-.17-.56-.29-.29-.14-.53-.34-.73-.58s-.3-.54-.3-.88c0-.25.07-.48.2-.71.13-.23.33-.41.6-.56.27-.15.59-.22.98-.22.09,0,.21,0,.35.02.14.01.32.05.54.11.22.06.42.15.62.26v1.22c-.09-.06-.17-.11-.23-.16-.06-.04-.14-.09-.25-.14-.1-.05-.22-.1-.36-.14-.14-.04-.28-.06-.43-.06-.18,0-.3.04-.37.12s-.1.16-.1.23.03.16.1.23.22.16.46.26c.34.15.62.3.82.46.21.16.35.33.44.52s.13.41.13.67Z"
         id="path57" />
      <path
         d="M41.12,142.19c0,.49-.09.94-.28,1.32-.19.39-.47.69-.85.92-.38.22-.84.34-1.38.34s-1-.11-1.38-.34c-.38-.22-.66-.53-.85-.92s-.28-.83-.28-1.32c0-.37.05-.71.16-1.02s.26-.58.48-.81c.21-.24.48-.42.79-.54.31-.13.67-.19,1.08-.19s.78.06,1.09.19c.32.13.58.31.79.54s.36.5.47.81c.11.31.16.65.16,1.03ZM39.49,142.19c0-.39-.08-.7-.23-.93s-.37-.33-.66-.33-.5.11-.65.33-.23.53-.23.93.08.7.23.93.37.34.65.34.5-.11.66-.34.23-.54.23-.93Z"
         id="path58" />
      <path
         d="M46.24,144.68h-1.55v-2.68c0-.27-.04-.51-.12-.72-.08-.2-.25-.31-.52-.31-.13,0-.24.03-.33.08-.1.05-.18.12-.26.21-.08.08-.14.17-.19.24-.05.08-.1.16-.16.25v2.92h-1.55v-4.97h1.55v.71c.24-.3.49-.5.73-.62.25-.12.52-.18.82-.18,1.05,0,1.57.71,1.57,2.14v2.92Z"
         id="path59" />
      <path
         d="M51.36,144.43c-.23.1-.44.18-.63.24-.19.06-.42.09-.69.09-.25,0-.43-.05-.53-.15-.1-.1-.17-.23-.21-.37-.17.15-.35.28-.55.38s-.47.15-.8.15-.58-.06-.77-.19-.33-.28-.41-.47c-.08-.19-.12-.39-.12-.59,0-.31.07-.56.2-.76.14-.2.32-.36.55-.49.23-.13.53-.26.91-.4.21-.08.38-.14.49-.18s.19-.07.25-.1c.05-.02.11-.05.17-.09,0-.24-.04-.43-.13-.57s-.27-.21-.56-.21c-.34,0-.65.08-.94.25s-.55.39-.79.65v-1.35c.19-.16.4-.28.62-.38s.46-.17.7-.22c.24-.05.49-.07.74-.07.63,0,1.11.14,1.43.42s.48.66.48,1.15v1.92c0,.18.01.32.04.41s.08.13.17.13c.1,0,.23-.05.4-.14v.92ZM49.2,143.47v-1.18c-.37.17-.63.32-.8.46s-.25.32-.25.55c0,.17.04.29.13.38.08.09.18.13.29.13.11,0,.21-.03.32-.1s.21-.15.32-.24Z"
         id="path60" />
      <path
         d="M56.16,144.68h-1.55v-2.68c0-.27-.04-.51-.12-.72-.08-.2-.25-.31-.52-.31-.13,0-.24.03-.33.08-.1.05-.18.12-.26.21-.08.08-.14.17-.19.24-.05.08-.11.16-.16.25v2.92h-1.55v-4.97h1.55v.71c.24-.3.49-.5.73-.62s.52-.18.82-.18c1.05,0,1.57.71,1.57,2.14v2.92Z"
         id="path61" />
      <path
         d="M60.48,144.45c-.13.06-.27.11-.41.15-.14.05-.3.09-.48.12-.18.03-.38.05-.59.05-.48,0-.88-.09-1.21-.28s-.59-.42-.76-.69c-.18-.28-.3-.56-.37-.85-.07-.29-.1-.55-.1-.77s.03-.48.1-.77.19-.57.37-.84c.17-.27.43-.5.76-.68s.74-.27,1.22-.27c.32,0,.59.03.79.08.2.05.41.12.62.21v1.38c-.5-.18-.9-.27-1.18-.27s-.52.09-.73.28c-.21.19-.32.48-.32.88,0,.26.05.49.16.67.11.18.24.31.4.4.16.08.33.13.49.13s.33-.03.53-.08c.2-.05.44-.13.72-.22v1.38Z"
         id="path62" />
      <path
         d="M65.37,142.61h-3.08c.06.3.21.55.44.74.23.19.5.29.8.29.52,0,1.1-.17,1.73-.5v1.09c-.23.13-.5.25-.82.36s-.73.16-1.23.16c-.54,0-1-.11-1.38-.34s-.66-.54-.85-.93-.28-.83-.28-1.33.09-.93.28-1.31.47-.69.85-.91.84-.33,1.38-.33c.35,0,.7.09,1.03.26.33.17.6.46.82.85.21.4.32.91.32,1.53v.35ZM63.92,141.75c0-.32-.07-.57-.21-.76-.14-.19-.34-.29-.6-.29s-.47.1-.62.29-.24.45-.24.76h1.67Z"
         id="path63" />
    </g>
    <g
       id="g65">
      <path
         d="M52.2,100.15l1.13-1.95c-2.75-1.43-5.84-2.3-9.12-2.44v2.26c2.87.14,5.57.89,7.99,2.14Z"
         id="path64" />
      <path
         d="M59.78,107l1.95-1.13c-1.72-2.68-4-4.96-6.68-6.68l-1.13,1.95c2.34,1.52,4.33,3.51,5.85,5.85Z"
         id="path65" />
      <path
         d="M32.47,101.15l-1.13-1.95c-2.68,1.72-4.96,4-6.68,6.68l1.95,1.13c1.52-2.34,3.51-4.33,5.85-5.85Z"
         id="path66" />
      <path
         d="M62.92,116.73h2.26c-.15-3.28-1.01-6.37-2.44-9.12l-1.95,1.13c1.24,2.42,1.99,5.13,2.14,8Z"
         id="path67" />
      <path
         d="M42.2,98.01v-2.26c-3.28.15-6.37,1.01-9.12,2.44l1.13,1.95c2.42-1.24,5.13-1.99,8-2.14Z"
         id="path68" />
      <path
         d="M26.62,128.46l-1.95,1.13c1.72,2.68,4,4.96,6.68,6.68l1.13-1.95c-2.34-1.52-4.33-3.51-5.85-5.85Z"
         id="path69" />
      <path
         d="M53.93,134.31l1.13,1.95c2.68-1.72,4.96-4,6.68-6.68l-1.95-1.13c-1.52,2.34-3.51,4.33-5.85,5.85Z"
         id="path70" />
      <path
         d="M62.92,118.73c-.14,2.87-.89,5.57-2.14,8l1.95,1.13c1.43-2.75,2.3-5.84,2.44-9.12h-2.26Z"
         id="path71" />
      <path
         d="M23.48,118.73h-2.26c.15,3.28,1.01,6.37,2.44,9.12l1.95-1.13c-1.24-2.42-1.99-5.13-2.14-8Z"
         id="path72" />
      <path
         d="M25.62,108.74l-1.95-1.13c-1.43,2.75-2.3,5.84-2.44,9.12h2.26c.14-2.87.89-5.57,2.14-8Z"
         id="path73" />
      <path
         d="M52.2,100.24l1.13-1.95c-2.75-1.43-5.84-2.3-9.12-2.44v2.26c2.87.14,5.57.89,7.99,2.14Z"
         id="path74" />
      <path
         d="M59.78,107.09l1.95-1.13c-1.72-2.68-4-4.96-6.68-6.68l-1.13,1.95c2.34,1.52,4.33,3.51,5.85,5.85Z"
         id="path75" />
      <path
         d="M32.47,101.24l-1.13-1.95c-2.68,1.72-4.96,4-6.68,6.68l1.95,1.13c1.52-2.34,3.51-4.33,5.85-5.85Z"
         id="path76" />
      <path
         d="M62.92,116.82h2.26c-.15-3.28-1.01-6.37-2.44-9.12l-1.95,1.13c1.24,2.42,1.99,5.13,2.14,8Z"
         id="path77" />
      <path
         d="M42.2,98.1v-2.26c-3.28.15-6.37,1.01-9.12,2.44l1.13,1.95c2.42-1.24,5.13-1.99,8-2.14Z"
         id="path78" />
      <path
         d="M26.62,128.55l-1.95,1.13c1.72,2.68,4,4.96,6.68,6.68l1.13-1.95c-2.34-1.52-4.33-3.51-5.85-5.85Z"
         id="path79" />
      <path
         d="M53.93,134.4l1.13,1.95c2.68-1.72,4.96-4,6.68-6.68l-1.95-1.13c-1.52,2.34-3.51,4.33-5.85,5.85Z"
         id="path80" />
      <path
         d="M62.92,118.82c-.14,2.87-.89,5.57-2.14,8l1.95,1.13c1.43-2.75,2.3-5.84,2.44-9.12h-2.26Z"
         id="path81" />
      <path
         d="M23.48,118.82h-2.26c.15,3.28,1.01,6.37,2.44,9.12l1.95-1.13c-1.24-2.42-1.99-5.13-2.14-8Z"
         id="path82" />
      <path
         d="M25.62,108.82l-1.95-1.13c-1.43,2.75-2.3,5.84-2.44,9.12h2.26c.14-2.87.89-5.57,2.14-8Z"
         id="path83" />
    </g>
    <g
       id="g74">
      <path
         d="M27.28,144.76h-1.93l-.47-1.2c-.17-.44-.33-.76-.46-.96-.14-.2-.27-.33-.4-.39-.13-.06-.3-.08-.5-.08h-.2v2.64h-1.8v-6.77h3.06c.49,0,.9.11,1.21.34.31.23.54.5.68.83.14.33.21.63.21.93,0,.34-.06.63-.17.87-.12.24-.24.41-.37.52s-.27.21-.43.31c.19.13.35.28.47.45.12.17.29.53.51,1.06l.6,1.47ZM24.84,140.13c0-.31-.09-.53-.27-.65-.18-.12-.47-.19-.88-.19h-.38v1.63h.39c.44,0,.74-.05.9-.16.16-.11.24-.32.24-.63Z"
         id="path84" />
      <path
         d="M31.98,142.7h-3.08c.06.3.21.55.44.74.23.19.5.29.8.29.52,0,1.1-.17,1.73-.5v1.09c-.23.13-.5.25-.82.36-.32.11-.73.16-1.23.16-.54,0-1-.11-1.38-.34-.38-.23-.66-.54-.85-.93s-.28-.83-.28-1.33.09-.93.28-1.31.47-.69.85-.91.84-.33,1.38-.33c.35,0,.7.09,1.03.26.33.17.6.46.82.85.21.4.32.91.32,1.53v.35ZM30.52,141.83c0-.32-.07-.57-.21-.76-.14-.19-.34-.29-.6-.29s-.47.1-.62.29c-.16.19-.24.45-.24.76h1.67Z"
         id="path85" />
      <path
         d="M35.8,143.31c0,.46-.15.83-.44,1.11-.29.29-.73.43-1.31.43-.32,0-.61-.03-.86-.1-.25-.07-.53-.16-.82-.29v-1.25c.26.17.49.3.68.39s.4.13.63.13c.39,0,.58-.12.58-.36,0-.08-.03-.15-.08-.22-.06-.06-.15-.13-.29-.21-.14-.08-.32-.17-.56-.29-.29-.14-.53-.34-.73-.58-.2-.24-.3-.54-.3-.88,0-.25.07-.49.2-.71.13-.23.33-.41.6-.56.27-.14.59-.22.98-.22.09,0,.21,0,.35.02.14.01.32.05.54.12.22.06.42.15.62.26v1.22c-.09-.06-.17-.11-.23-.16-.06-.04-.14-.09-.25-.14-.1-.05-.22-.1-.36-.14-.14-.04-.28-.06-.43-.06-.18,0-.3.04-.37.12s-.1.16-.1.23.03.16.1.23c.07.07.22.16.46.26.34.15.62.3.82.46.21.16.35.33.44.52.09.19.13.41.13.67Z"
         id="path86" />
      <path
         d="M41.12,142.27c0,.49-.09.94-.28,1.32-.19.39-.47.69-.85.92-.38.22-.84.34-1.38.34s-1-.11-1.38-.34c-.38-.22-.66-.53-.85-.92-.19-.39-.28-.83-.28-1.32,0-.38.05-.71.16-1.02.1-.31.26-.58.48-.81.21-.24.48-.42.79-.54.31-.13.67-.19,1.08-.19s.78.06,1.09.19c.32.13.58.31.79.54.21.23.36.5.47.81.11.31.16.65.16,1.03ZM39.49,142.27c0-.39-.08-.7-.23-.93-.15-.22-.37-.33-.66-.33s-.5.11-.65.33c-.15.22-.23.53-.23.93s.08.7.23.93c.15.23.37.34.65.34s.5-.11.66-.34c.15-.23.23-.54.23-.93Z"
         id="path87" />
      <path
         d="M46.24,144.76h-1.55v-2.68c0-.27-.04-.51-.12-.72-.08-.2-.25-.3-.52-.3-.13,0-.24.03-.33.08-.1.05-.18.12-.26.21-.08.08-.14.17-.19.24-.05.08-.1.16-.16.25v2.92h-1.55v-4.97h1.55v.71c.24-.3.49-.5.73-.62.25-.12.52-.18.82-.18,1.05,0,1.57.71,1.57,2.14v2.92Z"
         id="path88" />
      <path
         d="M51.36,144.51c-.23.1-.44.18-.63.24-.19.06-.42.09-.69.09-.25,0-.43-.05-.53-.15-.1-.1-.17-.23-.21-.37-.17.15-.35.28-.55.38-.2.1-.47.15-.8.15s-.58-.06-.77-.19c-.2-.12-.33-.28-.41-.47-.08-.19-.12-.39-.12-.59,0-.31.07-.56.2-.76.14-.2.32-.36.55-.49.23-.13.53-.26.91-.4.21-.08.38-.14.49-.18.11-.04.19-.07.25-.09.05-.02.11-.05.17-.09,0-.24-.04-.43-.13-.57s-.27-.21-.56-.21c-.34,0-.65.08-.94.25-.29.17-.55.39-.79.65v-1.35c.19-.16.4-.28.62-.38.22-.1.46-.17.7-.22.24-.05.49-.07.74-.07.63,0,1.11.14,1.43.42s.48.66.48,1.15v1.92c0,.18.01.32.04.41.03.09.08.13.17.13.1,0,.23-.05.4-.14v.92ZM49.2,143.56v-1.18c-.37.17-.63.32-.8.46-.17.14-.25.32-.25.55,0,.17.04.29.13.38.08.09.18.13.29.13.11,0,.21-.03.32-.1.1-.07.21-.15.32-.24Z"
         id="path89" />
      <path
         d="M56.16,144.76h-1.55v-2.68c0-.27-.04-.51-.12-.72-.08-.2-.25-.3-.52-.3-.13,0-.24.03-.33.08-.1.05-.18.12-.26.21-.08.08-.14.17-.19.24-.05.08-.11.16-.16.25v2.92h-1.55v-4.97h1.55v.71c.24-.3.49-.5.73-.62.25-.12.52-.18.82-.18,1.05,0,1.57.71,1.57,2.14v2.92Z"
         id="path90" />
      <path
         d="M60.48,144.53c-.13.05-.27.11-.41.15-.14.05-.3.09-.48.12-.18.03-.38.05-.59.05-.48,0-.88-.09-1.21-.28-.33-.18-.59-.42-.76-.69-.18-.28-.3-.56-.37-.85-.07-.29-.1-.55-.1-.77s.03-.48.1-.77c.07-.29.19-.57.37-.84.17-.27.43-.5.76-.68.33-.18.74-.27,1.22-.27.32,0,.59.03.79.08.2.05.41.12.62.21v1.38c-.5-.18-.9-.27-1.18-.27s-.52.09-.73.28c-.21.19-.32.48-.32.88,0,.26.05.49.16.67.11.18.24.31.4.4.16.08.33.13.49.13s.33-.03.53-.08c.2-.05.44-.13.72-.22v1.38Z"
         id="path91" />
      <path
         d="M65.37,142.7h-3.08c.06.3.21.55.44.74.23.19.5.29.8.29.52,0,1.1-.17,1.73-.5v1.09c-.23.13-.5.25-.82.36-.32.11-.73.16-1.23.16-.54,0-1-.11-1.38-.34-.38-.23-.66-.54-.85-.93s-.28-.83-.28-1.33.09-.93.28-1.31.47-.69.85-.91.84-.33,1.38-.33c.35,0,.7.09,1.03.26.33.17.6.46.82.85.21.4.32.91.32,1.53v.35ZM63.92,141.83c0-.32-.07-.57-.21-.76-.14-.19-.34-.29-.6-.29s-.47.1-.62.29c-.16.19-.24.45-.24.76h1.67Z"
         id="path92" />
    </g>
    <g
       id="g84">
      <path
         d="M52.2,35.94l1.13-1.95c-2.75-1.43-5.84-2.3-9.12-2.44v2.26c2.87.14,5.57.89,7.99,2.14Z"
         id="path93" />
      <path
         d="M59.78,42.8l1.95-1.13c-1.72-2.68-4-4.96-6.68-6.68l-1.13,1.95c2.34,1.52,4.33,3.51,5.85,5.85Z"
         id="path94" />
      <path
         d="M32.47,36.94l-1.13-1.95c-2.68,1.72-4.96,4-6.68,6.68l1.95,1.13c1.52-2.34,3.51-4.33,5.85-5.85Z"
         id="path95" />
      <path
         d="M62.92,52.52h2.26c-.15-3.28-1.01-6.37-2.44-9.12l-1.95,1.13c1.24,2.42,1.99,5.13,2.14,8Z"
         id="path96" />
      <path
         d="M42.2,33.81v-2.26c-3.28.15-6.37,1.01-9.12,2.44l1.13,1.95c2.42-1.24,5.13-1.99,8-2.14Z"
         id="path97" />
      <path
         d="M26.62,64.25l-1.95,1.13c1.72,2.68,4,4.96,6.68,6.68l1.13-1.95c-2.34-1.52-4.33-3.51-5.85-5.85Z"
         id="path98" />
      <path
         d="M53.93,70.1l1.13,1.95c2.68-1.72,4.96-4,6.68-6.68l-1.95-1.13c-1.52,2.34-3.51,4.33-5.85,5.85Z"
         id="path99" />
      <path
         d="M62.92,54.52c-.14,2.87-.89,5.57-2.14,8l1.95,1.13c1.43-2.75,2.3-5.84,2.44-9.12h-2.26Z"
         id="path100" />
      <path
         d="M23.48,54.52h-2.26c.15,3.28,1.01,6.37,2.44,9.12l1.95-1.13c-1.24-2.42-1.99-5.13-2.14-8Z"
         id="path101" />
      <path
         d="M25.62,44.53l-1.95-1.13c-1.43,2.75-2.3,5.84-2.44,9.12h2.26c.14-2.87.89-5.57,2.14-8Z"
         id="path102" />
    </g>
    <g
       id="g90">
      <path
         d="M35.87,80.56c-.25.15-.5.26-.76.35s-.52.15-.78.19-.53.06-.81.06c-.52,0-.98-.08-1.39-.24s-.77-.4-1.07-.72c-.3-.32-.53-.69-.68-1.11s-.23-.89-.23-1.4c0-.58.09-1.09.27-1.53.18-.44.43-.8.75-1.09.32-.29.68-.5,1.09-.64s.84-.21,1.29-.21c.68,0,1.44.17,2.3.51v1.8c-.29-.21-.59-.38-.87-.52-.29-.14-.63-.21-1.02-.21-.35,0-.67.08-.97.23s-.54.38-.73.67c-.18.29-.27.63-.27,1.02,0,.34.08.66.24.94.16.28.38.51.67.68s.61.25.96.25c.29,0,.56-.04.82-.12s.47-.17.65-.27.36-.21.54-.35v1.71Z"
         id="path103" />
      <path
         d="M41.08,81.07h-1.55v-.71c-.22.27-.45.47-.69.6s-.53.2-.86.2c-.66,0-1.09-.22-1.28-.66s-.29-.93-.29-1.48v-2.92h1.55v2.69c0,.27.04.51.12.71.08.2.25.31.51.31.23,0,.41-.07.54-.22.13-.15.27-.33.41-.56v-2.92h1.55v4.97Z"
         id="path104" />
      <path
         d="M45.17,80.78c-.16.09-.38.17-.66.25s-.55.12-.81.12c-1.11,0-1.67-.62-1.67-1.86v-1.98h-.7v-.31l2.08-2.4h.18v1.49h1.48v1.22h-1.48v1.59c0,.19,0,.34.03.45s.08.21.17.29.23.11.42.11c.25,0,.57-.12.97-.35v1.37Z"
         id="path105" />
      <path
         d="M50.33,78.58c0,.49-.09.94-.28,1.32-.19.39-.47.69-.85.92-.38.22-.83.34-1.38.34s-1-.11-1.38-.34-.66-.53-.85-.92-.28-.83-.28-1.32c0-.37.05-.71.16-1.02s.26-.58.48-.81.48-.42.79-.54c.31-.13.67-.19,1.08-.19s.78.06,1.09.19.58.31.79.54c.21.23.36.5.47.81s.16.65.16,1.03ZM48.7,78.58c0-.39-.08-.7-.23-.93s-.37-.33-.66-.33-.5.11-.65.33-.23.53-.23.93.08.7.23.93c.15.23.37.34.65.34s.5-.11.66-.34.23-.54.23-.93Z"
         id="path106" />
      <path
         d="M53.71,75.56c-.24-.06-.43-.09-.57-.09-.17,0-.3.06-.39.19-.09.12-.14.3-.14.53v.18h.78v1.19h-.78v3.52h-1.55v-3.52h-.71v-1.19h.71v-.09c0-.35.06-.68.18-.99s.32-.57.59-.77c.28-.2.64-.3,1.1-.3.26,0,.52.03.78.09v1.26Z"
         id="path107" />
      <path
         d="M56.61,75.56c-.24-.06-.43-.09-.57-.09-.17,0-.3.06-.39.19-.09.12-.14.3-.14.53v.18h.78v1.19h-.78v3.52h-1.55v-3.52h-.71v-1.19h.71v-.09c0-.35.06-.68.18-.99s.32-.57.59-.77c.28-.2.64-.3,1.1-.3.26,0,.52.03.78.09v1.26Z"
         id="path108" />
    </g>
    <g
       id="g92">
      <path
         d="M13.72,68.25v5.79h3.31v1.03h-4.63v-6.82h1.32Z"
         id="path109" />
      <path
         d="M20.82,68.25c.64,0,1.16.18,1.56.55s.6.85.6,1.43-.2,1.07-.61,1.43-.94.55-1.6.55h-1.27v2.86h-1.32v-6.82h2.64ZM20.49,71.18c.35,0,.63-.08.82-.24s.3-.4.3-.72c0-.63-.4-.94-1.21-.94h-.9v1.9h.99Z"
         id="path110" />
    </g>
    <g
       id="g94">
      <path
         d="M65.1,68.25v2.87h3.54v-2.87h1.32v6.82h-1.32v-2.88h-3.54v2.88h-1.32v-6.82h1.32Z"
         id="path111" />
      <path
         d="M74,68.25c.64,0,1.16.18,1.55.55.4.37.6.85.6,1.43s-.2,1.07-.61,1.43c-.4.36-.94.55-1.6.55h-1.27v2.86h-1.32v-6.82h2.64ZM73.67,71.18c.35,0,.63-.08.82-.24.2-.16.3-.4.3-.72,0-.63-.4-.94-1.21-.94h-.9v1.9h.99Z"
         id="path112" />
    </g>
    <g
       id="g100">
      <path
         d="M34.22,22.65c.5,0,.91.13,1.22.39s.47.59.47.98c0,.25-.07.47-.2.66s-.32.34-.57.45v.05c.38.09.68.26.89.51s.32.55.32.89c0,.3-.08.57-.23.81s-.37.42-.64.54-.6.18-.97.18h-2.29v-5.46h2ZM33.94,24.91c.28,0,.5-.07.66-.2s.24-.32.24-.55c0-.21-.07-.38-.22-.5s-.34-.19-.59-.19h-.76v1.44h.66ZM34.19,27.28c.36,0,.63-.07.81-.2s.27-.33.27-.59c0-.23-.09-.41-.27-.55s-.42-.2-.73-.2h-.99v1.54h.91Z"
         id="path113" />
      <path
         d="M37.61,24.46l.86,1.96.88-1.96h1.03l-2.52,5.49h-1.03l1.16-2.51-1.42-2.98h1.04Z"
         id="path114" />
      <path
         d="M42.67,24.39c.52,0,.94.17,1.26.52.32.35.48.8.48,1.36,0,.37-.07.7-.22.98-.15.29-.36.51-.64.68s-.59.24-.94.24c-.28,0-.57-.07-.86-.21v1.98h-.96v-5.49h.95v.23c.29-.2.6-.3.93-.3ZM41.75,27.26c.24.14.46.21.67.21.3,0,.54-.11.73-.32s.27-.49.27-.84c0-.37-.08-.66-.24-.88s-.39-.32-.69-.32c-.11,0-.22.02-.32.06s-.24.12-.41.24v1.85Z"
         id="path115" />
      <path
         d="M46.41,24.39c.47,0,.83.1,1.07.3.25.2.37.48.37.83v1.79c0,.14.06.21.17.21.05,0,.11-.02.2-.06.08-.04.16-.09.21-.14v.55c-.34.21-.64.31-.92.31-.17,0-.3-.03-.4-.09-.09-.06-.16-.16-.19-.3-.37.26-.74.39-1.11.39-.26,0-.49-.09-.68-.27-.19-.18-.28-.39-.28-.64,0-.31.09-.56.28-.75s.52-.34.98-.48l.78-.23v-.17c0-.36-.22-.54-.65-.54-.22,0-.44.05-.66.15s-.42.25-.6.45v-.86c.4-.31.87-.47,1.42-.47ZM45.82,27.13c0,.13.04.24.13.32.08.08.19.12.31.12.21,0,.42-.1.63-.29v-.96c-.27.09-.48.18-.63.26s-.26.16-.34.25c-.07.08-.11.19-.11.3Z"
         id="path116" />
      <path
         d="M50.06,24.39c.2,0,.39.02.57.07.18.05.36.12.56.22v.77c-.18-.12-.38-.21-.59-.28-.21-.07-.39-.11-.56-.11-.14,0-.25.03-.32.08s-.12.13-.12.22c0,.05.03.11.1.16.06.05.24.15.54.3.42.21.71.41.88.58s.25.39.25.64c0,.35-.12.63-.37.83-.25.2-.58.3-.99.3-.26,0-.5-.03-.73-.09-.23-.06-.41-.13-.56-.21v-.8c.47.26.86.39,1.18.39.16,0,.3-.03.4-.09s.15-.14.15-.23c0-.06-.02-.11-.05-.16-.04-.05-.09-.1-.16-.14-.07-.05-.3-.17-.68-.36-.29-.14-.51-.29-.65-.46s-.21-.36-.21-.59c0-.32.13-.58.38-.77.25-.19.58-.29,1-.29Z"
         id="path117" />
      <path
         d="M53.21,24.39c.2,0,.39.02.57.07.18.05.36.12.56.22v.77c-.18-.12-.38-.21-.59-.28-.21-.07-.39-.11-.56-.11-.14,0-.25.03-.32.08s-.12.13-.12.22c0,.05.03.11.1.16.06.05.24.15.54.3.42.21.71.41.88.58s.25.39.25.64c0,.35-.12.63-.37.83-.25.2-.58.3-.99.3-.26,0-.5-.03-.73-.09-.23-.06-.41-.13-.56-.21v-.8c.47.26.86.39,1.18.39.16,0,.3-.03.4-.09s.15-.14.15-.23c0-.06-.02-.11-.05-.16-.04-.05-.09-.1-.16-.14-.07-.05-.3-.17-.68-.36-.29-.14-.51-.29-.65-.46s-.21-.36-.21-.59c0-.32.13-.58.38-.77.25-.19.58-.29,1-.29Z"
         id="path118" />
    </g>
    <g
       id="g105">
      <path
         d="M36.53,206.84c0,.42-.1.79-.29,1.1-.19.31-.46.55-.8.71-.34.17-.73.25-1.17.25-.12,0-.27,0-.45-.03-.18-.02-.42-.07-.71-.15-.3-.08-.6-.2-.93-.36v-1.66c.3.21.6.39.89.53.29.14.6.21.93.21.31,0,.5-.06.6-.17.09-.12.14-.22.14-.32,0-.18-.08-.34-.23-.46-.15-.12-.38-.25-.67-.39-.33-.16-.61-.33-.86-.51-.25-.18-.45-.41-.6-.69-.16-.28-.23-.6-.23-.98s.08-.69.24-.99c.16-.29.4-.53.72-.71.32-.18.72-.26,1.19-.26.33,0,.64.04.92.11s.51.16.7.25c.18.09.31.16.38.21v1.59c-.24-.2-.51-.38-.81-.53s-.62-.23-.96-.23c-.22,0-.39.05-.49.15-.1.1-.15.22-.15.36,0,.13.05.25.15.35.1.1.28.22.54.36.46.24.82.46,1.1.66.28.2.49.42.65.68.16.26.23.57.23.96Z"
         id="path119" />
      <path
         d="M38.78,208.81h-1.55v-6.77h1.55v6.77Z"
         id="path120" />
      <path
         d="M44.32,206.32c0,.49-.09.94-.28,1.32-.19.39-.47.69-.85.92-.38.22-.84.34-1.38.34s-1-.11-1.38-.34c-.38-.22-.66-.53-.85-.92-.19-.39-.28-.83-.28-1.32,0-.38.05-.71.16-1.02.1-.31.26-.58.48-.81.21-.24.48-.42.79-.54.31-.13.67-.19,1.08-.19s.78.06,1.09.19c.32.13.58.31.79.54.21.23.36.5.47.81.11.31.16.65.16,1.03ZM42.69,206.32c0-.39-.08-.7-.23-.93-.15-.22-.37-.33-.66-.33s-.5.11-.65.33c-.15.22-.23.53-.23.93s.08.7.23.93c.15.23.37.34.65.34s.5-.11.66-.34c.15-.23.23-.54.23-.93Z"
         id="path121" />
      <path
         d="M49.57,206.29c0,.33-.04.65-.12.96-.08.31-.21.59-.38.84-.17.25-.39.45-.66.59-.27.15-.58.22-.93.22-.29,0-.51-.03-.68-.1-.16-.07-.33-.16-.49-.27v2.55h-1.55v-7.23h1.55v.45c.16-.15.33-.28.51-.38s.44-.15.76-.15.63.09.94.27c.31.18.56.46.76.84.2.38.3.86.3,1.43ZM47.95,206.33c0-.3-.04-.54-.12-.73-.08-.19-.19-.32-.32-.41s-.27-.12-.41-.12c-.18,0-.33.03-.45.1-.12.07-.23.15-.33.25v1.9c.05.03.11.07.17.11.06.04.12.08.18.11s.13.05.2.07.15.03.23.03c.24,0,.45-.12.61-.35s.25-.55.25-.96Z"
         id="path122" />
      <path
         d="M54.51,206.75h-3.08c.06.3.21.55.44.74.23.19.5.29.8.29.52,0,1.1-.17,1.73-.5v1.09c-.23.13-.5.25-.82.36-.32.11-.73.16-1.23.16-.54,0-1-.11-1.38-.34-.38-.23-.66-.54-.85-.93s-.28-.83-.28-1.33.09-.93.28-1.31.47-.69.85-.91.84-.33,1.38-.33c.35,0,.7.09,1.03.26.33.17.6.46.82.85.21.4.32.91.32,1.53v.35ZM53.06,205.88c0-.32-.07-.57-.21-.76-.14-.19-.34-.29-.6-.29s-.47.1-.62.29c-.16.19-.24.45-.24.76h1.67Z"
         id="path123" />
    </g>
    <g
       id="g109">
      <path
         d="M30.13,192.34l-3.2,3.2c.46.5.93.98,1.43,1.43l3.2-3.2c-.5-.45-.98-.93-1.43-1.43Z"
         id="path124" />
      <path
         d="M56.27,192.34c-.45.5-.93.98-1.43,1.43l3.2,3.2c.5-.46.98-.93,1.43-1.43l-3.2-3.2Z"
         id="path125" />
      <path
         d="M30.13,169.07c.45-.5.93-.98,1.43-1.43l-3.2-3.2c-.5.46-.98.93-1.43,1.43l3.2,3.2Z"
         id="path126" />
      <path
         d="M58.03,164.44l-3.2,3.2c.5.45.98.93,1.43,1.43l3.2-3.2c-.46-.5-.93-.98-1.43-1.43Z"
         id="path127" />
    </g>
    <g
       id="g112">
      <path
         d="M13.7,195.7c-.36.3-.77.75-1.21,1.34-.44.59-.76,1.11-.94,1.56.25-.11.51-.16.78-.16.35,0,.67.09.96.27.29.18.51.42.67.74.16.31.24.66.24,1.05,0,.41-.09.78-.28,1.12-.19.34-.45.6-.78.8-.33.19-.69.29-1.08.29-.66,0-1.2-.22-1.61-.67-.41-.45-.62-1.03-.62-1.75s.21-1.48.64-2.29c.43-.81,1.01-1.58,1.75-2.29h1.49ZM11.09,200.49c0,.32.09.58.27.78s.41.31.69.31.49-.1.66-.29c.17-.19.25-.45.25-.77,0-.3-.09-.55-.26-.75-.17-.2-.4-.29-.68-.29s-.49.1-.67.29c-.18.19-.27.43-.27.72Z"
         id="path128" />
      <path
         d="M17.94,198.15v-2.36h1.2v6.82h-2.11c-.73,0-1.31-.21-1.75-.63s-.66-.99-.66-1.72c0-.43.1-.82.31-1.17s.48-.63.84-.83.74-.3,1.15-.3c.32,0,.66.06,1.02.19ZM17.31,201.69h.63v-2.64c-.25-.13-.5-.19-.77-.19-.4,0-.72.12-.96.38-.24.25-.36.58-.36.99,0,.98.49,1.47,1.46,1.47Z"
         id="path129" />
      <path
         d="M21.14,195.79v2.55c.35-.25.76-.38,1.21-.38.4,0,.76.1,1.09.29.33.2.58.47.76.83s.27.75.27,1.19c0,.75-.22,1.34-.67,1.77-.45.43-1.06.65-1.83.65-.7,0-1.37-.13-2.03-.39v-6.52h1.2ZM21.14,201.66c.26.09.56.13.9.13.37,0,.66-.13.88-.4s.32-.64.32-1.12c0-.43-.11-.77-.33-1.03-.22-.25-.51-.38-.86-.38-.17,0-.32.03-.46.09-.14.06-.29.16-.45.29v2.42Z"
         id="path130" />
    </g>
    <g
       id="g116">
      <path
         d="M8.16,157.99v6.82h-1.25v-6.82h1.25Z"
         id="path131" />
      <path
         d="M12.08,157.9c.65,0,1.16.18,1.55.55s.57.86.57,1.48c0,.47-.14.98-.43,1.52s-.79,1.27-1.5,2.17h2.34v1.18h-4.42v-.14c.51-.63.96-1.21,1.33-1.71s.66-.93.86-1.26.35-.62.43-.85.13-.48.13-.73c0-.31-.1-.58-.3-.79s-.44-.32-.73-.32c-.51,0-1.05.29-1.6.88v-1.34c.58-.43,1.18-.65,1.78-.65Z"
         id="path132" />
      <path
         d="M18.34,160.36v-2.36h1.2v6.82h-2.11c-.73,0-1.31-.21-1.75-.63s-.66-.99-.66-1.72c0-.43.1-.82.31-1.17s.48-.63.84-.83.74-.3,1.15-.3c.32,0,.66.06,1.02.19ZM17.71,163.9h.63v-2.64c-.25-.13-.5-.19-.77-.19-.4,0-.72.13-.96.38s-.36.58-.36.99c0,.98.49,1.47,1.46,1.47Z"
         id="path133" />
      <path
         d="M21.53,157.99v2.55c.35-.25.76-.38,1.21-.38.4,0,.76.1,1.09.3s.58.47.76.83.27.75.27,1.19c0,.75-.22,1.34-.67,1.77s-1.06.65-1.83.65c-.7,0-1.37-.13-2.03-.39v-6.52h1.2ZM21.53,163.86c.26.09.56.13.9.13.37,0,.66-.13.88-.4s.32-.64.32-1.12c0-.43-.11-.77-.33-1.03s-.51-.38-.86-.38c-.17,0-.32.03-.46.09s-.29.16-.45.29v2.42Z"
         id="path134" />
    </g>
    <g
       id="g120">
      <path
         d="M63.84,157.99v6.82h-1.25v-6.82h1.25Z"
         id="path135" />
      <path
         d="M68.11,157.9c.61,0,1.11.18,1.49.53s.58.81.58,1.38c0,.62-.28,1.1-.84,1.45.35.19.61.42.76.69s.23.59.23.96-.1.72-.29,1.02c-.19.3-.46.54-.8.71s-.72.25-1.14.25c-.65,0-1.19-.19-1.61-.56-.42-.37-.63-.85-.63-1.43,0-.39.08-.72.25-.98s.42-.49.75-.67c-.56-.35-.84-.84-.84-1.46,0-.56.19-1.02.58-1.37.39-.35.89-.53,1.5-.53ZM67.14,162.85c0,.34.09.6.26.79s.41.29.71.29.53-.1.7-.29.26-.45.26-.77-.09-.58-.26-.79-.4-.31-.68-.31c-.29,0-.53.1-.71.29s-.27.46-.27.78ZM67.28,159.83c0,.29.08.53.23.72s.35.28.6.28.43-.1.59-.29.23-.43.23-.71c0-.3-.07-.53-.22-.7-.15-.17-.35-.26-.6-.26s-.46.08-.61.25c-.15.17-.22.41-.22.71Z"
         id="path136" />
      <path
         d="M74.02,160.35v-2.36h1.2v6.82h-2.11c-.73,0-1.31-.21-1.75-.63-.44-.42-.66-.99-.66-1.72,0-.43.1-.82.31-1.17.2-.35.48-.63.84-.83s.74-.3,1.15-.3c.32,0,.66.06,1.02.19ZM73.39,163.89h.63v-2.64c-.25-.13-.5-.19-.77-.19-.4,0-.72.13-.96.38s-.36.58-.36.99c0,.98.49,1.47,1.46,1.47Z"
         id="path137" />
      <path
         d="M77.22,157.99v2.55c.36-.25.76-.38,1.21-.38.4,0,.76.1,1.09.3s.58.47.76.83.27.75.27,1.19c0,.75-.22,1.34-.67,1.77-.45.43-1.06.65-1.83.65-.7,0-1.37-.13-2.03-.39v-6.52h1.2ZM77.22,163.86c.26.09.56.13.9.13.37,0,.66-.13.88-.4.22-.27.32-.64.32-1.12,0-.43-.11-.77-.33-1.03-.22-.26-.51-.38-.86-.38-.17,0-.32.03-.46.09-.14.06-.29.16-.45.29v2.42Z"
         id="path138" />
    </g>
    <g
       id="g124">
      <path
         d="M63.48,195.7c.65,0,1.16.18,1.54.55.38.37.57.86.57,1.48,0,.47-.14.98-.43,1.52-.28.55-.79,1.27-1.5,2.17h2.34v1.18h-4.42v-.14c.51-.63.96-1.21,1.33-1.71.37-.51.66-.93.86-1.26.2-.33.34-.62.43-.85.08-.23.13-.48.13-.73,0-.31-.1-.58-.3-.79-.2-.21-.44-.32-.73-.32-.51,0-1.05.29-1.6.88v-1.34c.58-.43,1.18-.65,1.78-.65Z"
         id="path139" />
      <path
         d="M70.27,195.7v3.98h.58v1h-.58v1.93h-1.25v-1.93h-2.79v-.8l3.32-4.18h.72ZM68.99,197.77l-1.51,1.91h1.54v-1.91h-.03Z"
         id="path140" />
      <path
         d="M74.62,198.15v-2.36h1.2v6.82h-2.11c-.73,0-1.31-.21-1.75-.63-.44-.42-.66-.99-.66-1.72,0-.43.1-.82.3-1.17.2-.35.48-.63.84-.83s.74-.3,1.16-.3c.32,0,.66.06,1.02.19ZM73.99,201.69h.63v-2.64c-.25-.13-.5-.19-.77-.19-.4,0-.72.13-.96.38-.24.25-.36.58-.36.99,0,.98.49,1.47,1.46,1.47Z"
         id="path141" />
      <path
         d="M77.82,195.79v2.55c.35-.25.76-.38,1.21-.38.4,0,.76.1,1.09.3.33.2.58.47.76.83s.27.75.27,1.19c0,.75-.22,1.34-.67,1.77-.45.43-1.06.65-1.83.65-.7,0-1.37-.13-2.03-.39v-6.52h1.2ZM77.82,201.66c.26.09.56.13.9.13.37,0,.66-.13.88-.4.22-.27.33-.64.33-1.12,0-.43-.11-.77-.33-1.03-.22-.26-.51-.38-.86-.38-.17,0-.32.03-.46.09-.14.06-.29.16-.45.29v2.42Z"
         id="path142" />
    </g>
    <path
       d="M82.82,233.72c-.31-8.93-6.53-15.93-14.16-15.93H17.74c-7.63,0-13.85,7-14.16,15.95l-.06,6.83v21.06l.07,61.87h0v11.26c0,3.5,2.84,6.34,6.34,6.34h13.29s40.05,0,40.05,0h0s13.29,0,13.29,0c3.5,0,6.34-2.84,6.34-6.34v-94.2l-.06-6.84ZM81.86,324.48v10.28c0,2.93-2.38,5.31-5.31,5.31H17.78s0,0,0,0h-7.86c-2.93,0-5.31-2.38-5.31-5.31v-10.28h0l-.07-62.85v-21.06l.06-6.81c.29-8.38,6.06-14.94,13.14-14.94h50.92c7.07,0,12.84,6.56,13.14,14.93l.06,6.82v83.92Z"
       id="path143" />
    <g
       id="art">
      <path
         d="M76.55,340.47c2.81,0,6.16-2.95,6.16-6.07l.18-22.41c0-8.09-6.35-14.65-14.18-14.65H17.69c-7.83,0-14.18,6.56-14.18,14.65v20.46c0,2.69.57,6.59,2.85,7.15.76.29,1.59.46,2.47.46h10.15l46.06.4h11.5Z"
         id="path144" />
      <g
         id="g171">
        <g
           id="g150">
          <path
             d="M14.81,254.79c-.2.12-.4.21-.6.28-.21.07-.41.12-.62.15-.21.03-.43.04-.65.04-.42,0-.79-.06-1.12-.2-.33-.13-.61-.32-.86-.58s-.42-.55-.54-.89-.18-.71-.18-1.12c0-.47.07-.87.21-1.22.14-.35.34-.64.6-.87.26-.23.55-.4.87-.51.33-.11.67-.17,1.03-.17.54,0,1.15.14,1.84.41v1.44c-.24-.17-.47-.3-.7-.42-.23-.11-.5-.17-.81-.17-.28,0-.54.06-.78.19s-.43.3-.58.54c-.15.23-.22.5-.22.81,0,.27.06.52.19.75.13.23.31.41.53.54.23.13.49.2.77.2.23,0,.45-.03.66-.1.21-.06.38-.13.52-.21s.29-.17.44-.28v1.37Z"
             id="path145" />
          <path
             d="M18.98,255.2h-1.24v-.57c-.17.21-.36.37-.55.48s-.42.16-.69.16c-.53,0-.87-.17-1.03-.53-.16-.35-.23-.75-.23-1.19v-2.34h1.24v2.15c0,.22.03.41.1.57.06.16.2.24.41.24.18,0,.33-.06.43-.18.11-.12.21-.27.32-.45v-2.34h1.24v3.98Z"
             id="path146" />
          <path
             d="M22.25,254.97c-.13.07-.31.14-.53.2-.23.07-.44.1-.65.1-.89,0-1.34-.49-1.34-1.48v-1.59h-.56v-.25l1.66-1.92h.14v1.19h1.18v.98h-1.18v1.27c0,.15,0,.27.02.36.02.09.06.17.14.23.07.06.19.09.34.09.2,0,.46-.09.78-.28v1.1Z"
             id="path147" />
          <path
             d="M26.38,253.21c0,.4-.08.75-.23,1.06-.15.31-.38.55-.68.73-.3.18-.67.27-1.1.27s-.8-.09-1.1-.27-.53-.42-.68-.73c-.15-.31-.23-.66-.23-1.06,0-.3.04-.57.13-.82.08-.24.21-.46.38-.65.17-.19.38-.33.63-.44.25-.1.54-.15.87-.15s.62.05.88.15c.25.1.46.25.63.43.17.19.29.4.38.65.08.25.13.52.13.82ZM25.07,253.21c0-.31-.06-.56-.18-.74-.12-.18-.3-.27-.52-.27s-.4.09-.52.27c-.12.18-.18.43-.18.74s.06.56.18.74c.12.18.29.27.52.27s.4-.09.52-.27c.12-.18.18-.43.18-.74Z"
             id="path148" />
          <path
             d="M29.08,250.79c-.19-.05-.34-.07-.46-.07-.13,0-.24.05-.31.15-.07.1-.11.24-.11.42v.14h.63v.95h-.63v2.82h-1.24v-2.82h-.57v-.95h.57v-.07c0-.28.05-.54.14-.79.1-.25.25-.45.48-.62.22-.16.52-.24.88-.24.21,0,.41.03.62.07v1.01Z"
             id="path149" />
          <path
             d="M31.4,250.79c-.19-.05-.34-.07-.46-.07-.13,0-.24.05-.31.15-.07.1-.11.24-.11.42v.14h.63v.95h-.63v2.82h-1.24v-2.82h-.57v-.95h.57v-.07c0-.28.05-.54.14-.79.1-.25.25-.45.48-.62.22-.16.52-.24.88-.24.21,0,.41.03.62.07v1.01Z"
             id="path150" />
        </g>
        <g
           id="g153">
          <path
             d="M64.69,255.2h-1.54l-.38-.96c-.14-.35-.26-.61-.37-.77-.11-.16-.22-.27-.32-.31-.1-.04-.24-.07-.4-.07h-.16v2.11h-1.44v-5.41h2.44c.39,0,.72.09.97.27.25.18.43.4.54.66.11.26.17.51.17.74,0,.27-.05.5-.14.69-.09.19-.19.33-.29.41-.1.09-.22.17-.35.25.15.1.28.22.38.36.1.14.24.42.41.85l.48,1.18ZM62.74,251.5c0-.25-.07-.42-.22-.52-.14-.1-.38-.15-.71-.15h-.3v1.3h.31c.35,0,.59-.04.72-.13.13-.09.19-.25.19-.5Z"
             id="path151" />
          <path
             d="M68.45,253.55h-2.46c.05.24.17.44.35.59.19.15.4.23.64.23.42,0,.88-.13,1.38-.4v.87c-.18.11-.4.2-.66.29-.26.09-.59.13-.98.13-.43,0-.8-.09-1.1-.27-.3-.18-.53-.43-.68-.74-.15-.31-.22-.67-.22-1.06s.08-.74.22-1.05c.15-.31.38-.55.68-.73.3-.18.67-.26,1.1-.26.28,0,.56.07.82.21.26.14.48.37.65.68.17.32.26.72.26,1.22v.28ZM67.29,252.86c0-.25-.06-.46-.17-.61-.11-.15-.27-.23-.48-.23s-.37.08-.5.23c-.13.16-.19.36-.19.61h1.34Z"
             id="path152" />
          <path
             d="M71.51,254.04c0,.37-.12.66-.35.89-.24.23-.58.34-1.05.34-.26,0-.49-.03-.69-.08-.2-.05-.42-.13-.66-.23v-1c.21.14.39.24.54.31.15.07.32.11.5.11.31,0,.46-.1.46-.29,0-.06-.02-.12-.07-.17-.04-.05-.12-.11-.23-.17-.11-.06-.26-.14-.45-.23-.23-.11-.42-.27-.58-.46-.16-.19-.24-.43-.24-.71,0-.2.05-.39.16-.57.11-.18.27-.33.48-.45.21-.12.48-.17.78-.17.07,0,.17,0,.28.02s.26.04.43.09c.17.05.34.12.49.21v.97c-.07-.05-.13-.09-.18-.12-.05-.03-.12-.07-.2-.11-.08-.04-.18-.08-.29-.11-.11-.03-.23-.05-.34-.05-.14,0-.24.03-.29.09s-.08.12-.08.19.03.13.08.18c.05.06.18.13.37.21.28.12.5.24.66.37.17.13.28.27.35.42.07.15.1.33.1.54Z"
             id="path153" />
        </g>
        <g
           id="g156">
          <path
             d="M16.15,294.29h-1.44v-5.41h1.44v5.41Z"
             id="path154" />
          <path
             d="M20.61,294.29h-1.24v-2.14c0-.22-.03-.41-.09-.57-.06-.16-.2-.24-.41-.24-.1,0-.19.02-.27.06s-.15.1-.21.17c-.06.07-.11.13-.15.2-.04.06-.08.13-.13.2v2.34h-1.24v-3.98h1.24v.57c.19-.24.39-.4.59-.5.2-.1.41-.14.65-.14.84,0,1.26.57,1.26,1.71v2.34Z"
             id="path155" />
          <path
             d="M26.7,294.29h-3.62v-5.41h1.44v4.12h2.18v1.3Z"
             id="path156" />
        </g>
        <g
           id="g159">
          <path
             d="M61.1,294.29h-1.44v-5.41h1.44v5.41Z"
             id="path157" />
          <path
             d="M65.56,294.29h-1.24v-2.14c0-.22-.03-.41-.09-.57-.06-.16-.2-.24-.41-.24-.1,0-.19.02-.27.06-.08.04-.15.1-.21.17-.06.07-.11.13-.15.2s-.08.13-.13.2v2.34h-1.24v-3.98h1.24v.57c.19-.24.39-.4.59-.5.2-.1.41-.14.65-.14.84,0,1.26.57,1.26,1.71v2.34Z"
             id="path158" />
          <path
             d="M72.64,294.29h-1.54l-.38-.96c-.14-.35-.26-.61-.37-.77-.11-.16-.22-.27-.32-.31-.1-.05-.24-.07-.4-.07h-.16v2.11h-1.44v-5.41h2.44c.39,0,.72.09.97.27.25.18.43.4.54.66.11.26.17.51.17.74,0,.27-.05.5-.14.69-.09.19-.19.33-.29.41-.1.09-.22.17-.35.25.15.1.28.22.38.36.1.14.24.42.41.85l.48,1.18ZM70.69,290.58c0-.25-.07-.42-.22-.52-.14-.1-.38-.15-.71-.15h-.3v1.3h.31c.35,0,.59-.04.72-.13.13-.09.19-.25.19-.5Z"
             id="path159" />
        </g>
        <g
           id="g163">
          <path
             d="M16.62,333.13c0,.51-.1.97-.31,1.39-.21.42-.51.76-.92,1.01s-.9.38-1.48.38-1.09-.13-1.5-.39c-.41-.26-.71-.6-.91-1.03-.2-.42-.3-.88-.3-1.36s.1-.94.3-1.37c.2-.42.5-.76.91-1.02.41-.26.91-.39,1.5-.39.44,0,.83.07,1.18.22s.63.35.85.6c.22.25.39.55.51.89.11.34.17.69.17,1.06ZM15.16,333.13c0-.2-.03-.39-.08-.56s-.13-.31-.24-.44c-.11-.12-.24-.22-.39-.29-.15-.07-.33-.1-.53-.1-.39,0-.69.13-.91.38-.22.26-.33.59-.33,1s.11.75.33,1.01c.22.26.52.38.91.38.26,0,.49-.06.67-.18.19-.12.33-.28.42-.49.1-.21.14-.45.14-.72Z"
             style="fill: #fff;"
             id="path160" />
          <path
             d="M20.72,335.84h-1.24v-.57c-.17.21-.36.37-.55.48s-.42.16-.69.16c-.53,0-.87-.17-1.03-.53-.16-.35-.23-.75-.23-1.19v-2.34h1.24v2.15c0,.22.03.41.1.57.06.16.2.24.41.24.18,0,.33-.06.43-.18.11-.12.21-.27.32-.45v-2.34h1.24v3.98Z"
             style="fill: #fff;"
             id="path161" />
          <path
             d="M23.99,335.61c-.13.07-.31.14-.53.2-.23.07-.44.1-.65.1-.89,0-1.34-.49-1.34-1.48v-1.59h-.56v-.25l1.66-1.92h.14v1.19h1.18v.98h-1.18v1.27c0,.15,0,.27.02.36.02.09.06.17.14.23.07.06.19.09.34.09.2,0,.46-.09.78-.28v1.1Z"
             style="fill: #fff;"
             id="path162" />
          <path
             d="M29.88,335.84h-3.62v-5.41h1.44v4.12h2.18v1.3Z"
             style="fill: #fff;"
             id="path163" />
        </g>
        <g
           id="g167">
          <path
             d="M61.57,333.13c0,.51-.1.97-.31,1.39-.21.42-.51.76-.92,1.01-.41.25-.9.38-1.48.38s-1.09-.13-1.5-.39c-.41-.26-.71-.6-.91-1.03-.2-.42-.3-.88-.3-1.36s.1-.94.3-1.37c.2-.42.5-.76.91-1.02.41-.26.91-.39,1.5-.39.44,0,.83.07,1.18.22s.63.35.85.6.39.55.5.89c.12.34.17.69.17,1.06ZM60.11,333.13c0-.2-.03-.39-.08-.56s-.13-.31-.24-.44c-.11-.12-.24-.22-.39-.29-.15-.07-.33-.1-.53-.1-.38,0-.69.13-.91.38-.22.26-.33.59-.33,1s.11.75.33,1.01c.22.26.52.38.91.38.26,0,.49-.06.67-.18.19-.12.33-.28.42-.49.1-.21.14-.45.14-.72Z"
             style="fill: #fff;"
             id="path164" />
          <path
             d="M65.67,335.84h-1.24v-.57c-.17.21-.36.37-.55.48-.19.11-.42.16-.69.16-.53,0-.87-.17-1.03-.53-.16-.35-.23-.75-.23-1.19v-2.34h1.24v2.15c0,.22.03.41.09.57.06.16.2.24.41.24.18,0,.33-.06.43-.18s.21-.27.32-.45v-2.34h1.24v3.98Z"
             style="fill: #fff;"
             id="path165" />
          <path
             d="M68.94,335.61c-.13.07-.31.14-.53.2-.23.07-.44.1-.65.1-.89,0-1.34-.49-1.34-1.48v-1.59h-.56v-.25l1.66-1.92h.14v1.19h1.18v.98h-1.18v1.27c0,.15,0,.27.02.36.02.09.06.17.14.23.07.06.19.09.34.09.2,0,.46-.09.78-.28v1.1Z"
             style="fill: #fff;"
             id="path166" />
          <path
             d="M75.82,335.84h-1.54l-.38-.96c-.14-.35-.26-.61-.37-.77-.11-.16-.22-.27-.32-.31-.1-.04-.24-.07-.4-.07h-.16v2.11h-1.44v-5.41h2.44c.39,0,.72.09.97.27.25.18.43.4.54.66.11.26.17.51.17.74,0,.27-.05.5-.14.69-.09.19-.19.33-.29.41-.1.09-.22.17-.35.25.15.1.28.22.38.36.1.14.24.42.41.85l.48,1.18ZM73.87,332.13c0-.25-.07-.42-.22-.52-.14-.1-.38-.15-.7-.15h-.3v1.3h.31c.35,0,.59-.04.72-.13.13-.09.19-.25.19-.5Z"
             style="fill: #fff;"
             id="path167" />
        </g>
        <g
           id="g170">
          <path
             d="M35,18.05c-.37,0-.71-.17-.97-.47-.51-.6-.52-1.54-.04-2.16l6.97-8.88c.38-.48,1.05-.65,1.57-.39.5.25.79.82.79,1.45v4.77l4.64-5.85c.38-.48,1.01-.64,1.53-.38.5.25.83.81.83,1.44v8.82c0,.86-.61,1.57-1.36,1.57s-1.36-.7-1.36-1.57v-4.79l-4.64,5.85c-.38.48-1.01.64-1.54.38-.5-.24-.83-.81-.83-1.44v-4.67l-4.61,5.8c-.26.32-.62.51-1,.51h0Z"
             style="fill: #2cabe1;"
             id="path168" />
          <path
             d="M35,18.05c-.75,0-1.35-.7-1.35-1.57v-4.93l-2.26,2.84c-.5.63-1.44.65-1.97.04-.51-.6-.52-1.53-.03-2.15l4.61-5.76c.26-.32.63-.5,1-.5.18,0,.37.04.54.12.5.25.82.81.82,1.44v8.89c0,.86-.61,1.57-1.36,1.57h0Z"
             style="fill: #ea2228;"
             id="path169" />
          <path
             d="M51.6,18.07h0c-.35,0-.68-.15-.94-.42-.76-.78-.14-1.84.29-2.3l1.95-2.36-1.26-.02c-.56-.01-1.04-.4-1.24-1-.19-.56-.07-1.21.29-1.64l3.16-3.83c.23-.28.55-.48,1.13-.47.33,0,.67.17.92.4.71.66.29,1.7-.07,2.2l-1.04,1.26,1.26.02c.56.01,1.04.4,1.24,1,.19.56.07,1.21-.29,1.64l-4.1,4.97c-.35.35-.65.55-1.3.54h0Z"
             style="fill: #00a650;"
             id="path170" />
        </g>
      </g>
      <g
         id="g179">
        <path
           d="M27.28,144.68h-1.93l-.47-1.2c-.17-.44-.33-.76-.46-.96s-.27-.33-.4-.39-.3-.09-.5-.09h-.2v2.64h-1.8v-6.77h3.06c.49,0,.9.11,1.21.34.31.23.54.5.68.83.14.33.21.63.21.93,0,.34-.06.63-.17.87-.12.24-.24.41-.37.52s-.27.21-.43.31c.19.13.35.28.47.45s.29.53.51,1.06l.6,1.47ZM24.84,140.05c0-.31-.09-.53-.27-.65s-.47-.19-.88-.19h-.38v1.63h.39c.44,0,.74-.05.9-.16.16-.11.24-.32.24-.63Z"
           id="path171" />
        <path
           d="M31.98,142.61h-3.08c.06.3.21.55.44.74s.5.29.8.29c.52,0,1.1-.17,1.73-.5v1.09c-.23.13-.5.25-.82.36s-.73.16-1.23.16c-.54,0-1-.11-1.38-.34s-.66-.54-.85-.93-.28-.83-.28-1.33.09-.93.28-1.31.47-.69.85-.91.84-.33,1.38-.33c.35,0,.7.09,1.03.26.33.17.6.46.82.85.21.4.32.91.32,1.53v.35ZM30.52,141.75c0-.32-.07-.57-.21-.76-.14-.19-.34-.29-.6-.29s-.47.1-.62.29-.24.45-.24.76h1.67Z"
           id="path172" />
        <path
           d="M35.8,143.23c0,.46-.15.83-.44,1.11-.29.28-.73.43-1.31.43-.32,0-.61-.03-.86-.1-.25-.07-.53-.16-.82-.29v-1.25c.26.17.49.3.68.39s.4.13.63.13c.39,0,.58-.12.58-.36,0-.08-.03-.15-.08-.22-.06-.06-.15-.14-.29-.21-.14-.08-.32-.17-.56-.29-.29-.14-.53-.34-.73-.58s-.3-.54-.3-.88c0-.25.07-.48.2-.71.13-.23.33-.41.6-.56.27-.15.59-.22.98-.22.09,0,.21,0,.35.02.14.01.32.05.54.11.22.06.42.15.62.26v1.22c-.09-.06-.17-.11-.23-.16-.06-.04-.14-.09-.25-.14-.1-.05-.22-.1-.36-.14-.14-.04-.28-.06-.43-.06-.18,0-.3.04-.37.12s-.1.16-.1.23.03.16.1.23.22.16.46.26c.34.15.62.3.82.46.21.16.35.33.44.52s.13.41.13.67Z"
           id="path173" />
        <path
           d="M41.12,142.19c0,.49-.09.94-.28,1.32-.19.39-.47.69-.85.92-.38.22-.84.34-1.38.34s-1-.11-1.38-.34c-.38-.22-.66-.53-.85-.92s-.28-.83-.28-1.32c0-.37.05-.71.16-1.02s.26-.58.48-.81c.21-.24.48-.42.79-.54.31-.13.67-.19,1.08-.19s.78.06,1.09.19c.32.13.58.31.79.54s.36.5.47.81c.11.31.16.65.16,1.03ZM39.49,142.19c0-.39-.08-.7-.23-.93s-.37-.33-.66-.33-.5.11-.65.33-.23.53-.23.93.08.7.23.93.37.34.65.34.5-.11.66-.34.23-.54.23-.93Z"
           id="path174" />
        <path
           d="M46.24,144.68h-1.55v-2.68c0-.27-.04-.51-.12-.72-.08-.2-.25-.31-.52-.31-.13,0-.24.03-.33.08-.1.05-.18.12-.26.21-.08.08-.14.17-.19.24-.05.08-.1.16-.16.25v2.92h-1.55v-4.97h1.55v.71c.24-.3.49-.5.73-.62.25-.12.52-.18.82-.18,1.05,0,1.57.71,1.57,2.14v2.92Z"
           id="path175" />
        <path
           d="M51.36,144.43c-.23.1-.44.18-.63.24-.19.06-.42.09-.69.09-.25,0-.43-.05-.53-.15-.1-.1-.17-.23-.21-.37-.17.15-.35.28-.55.38s-.47.15-.8.15-.58-.06-.77-.19-.33-.28-.41-.47c-.08-.19-.12-.39-.12-.59,0-.31.07-.56.2-.76.14-.2.32-.36.55-.49.23-.13.53-.26.91-.4.21-.08.38-.14.49-.18s.19-.07.25-.1c.05-.02.11-.05.17-.09,0-.24-.04-.43-.13-.57s-.27-.21-.56-.21c-.34,0-.65.08-.94.25s-.55.39-.79.65v-1.35c.19-.16.4-.28.62-.38s.46-.17.7-.22c.24-.05.49-.07.74-.07.63,0,1.11.14,1.43.42s.48.66.48,1.15v1.92c0,.18.01.32.04.41s.08.13.17.13c.1,0,.23-.05.4-.14v.92ZM49.2,143.47v-1.18c-.37.17-.63.32-.8.46s-.25.32-.25.55c0,.17.04.29.13.38.08.09.18.13.29.13.11,0,.21-.03.32-.1s.21-.15.32-.24Z"
           id="path176" />
        <path
           d="M56.16,144.68h-1.55v-2.68c0-.27-.04-.51-.12-.72-.08-.2-.25-.31-.52-.31-.13,0-.24.03-.33.08-.1.05-.18.12-.26.21-.08.08-.14.17-.19.24-.05.08-.11.16-.16.25v2.92h-1.55v-4.97h1.55v.71c.24-.3.49-.5.73-.62s.52-.18.82-.18c1.05,0,1.57.71,1.57,2.14v2.92Z"
           id="path177" />
        <path
           d="M60.48,144.45c-.13.06-.27.11-.41.15-.14.05-.3.09-.48.12-.18.03-.38.05-.59.05-.48,0-.88-.09-1.21-.28s-.59-.42-.76-.69c-.18-.28-.3-.56-.37-.85-.07-.29-.1-.55-.1-.77s.03-.48.1-.77.19-.57.37-.84c.17-.27.43-.5.76-.68s.74-.27,1.22-.27c.32,0,.59.03.79.08.2.05.41.12.62.21v1.38c-.5-.18-.9-.27-1.18-.27s-.52.09-.73.28c-.21.19-.32.48-.32.88,0,.26.05.49.16.67.11.18.24.31.4.4.16.08.33.13.49.13s.33-.03.53-.08c.2-.05.44-.13.72-.22v1.38Z"
           id="path178" />
        <path
           d="M65.37,142.61h-3.08c.06.3.21.55.44.74.23.19.5.29.8.29.52,0,1.1-.17,1.73-.5v1.09c-.23.13-.5.25-.82.36s-.73.16-1.23.16c-.54,0-1-.11-1.38-.34s-.66-.54-.85-.93-.28-.83-.28-1.33.09-.93.28-1.31.47-.69.85-.91.84-.33,1.38-.33c.35,0,.7.09,1.03.26.33.17.6.46.82.85.21.4.32.91.32,1.53v.35ZM63.92,141.75c0-.32-.07-.57-.21-.76-.14-.19-.34-.29-.6-.29s-.47.1-.62.29-.24.45-.24.76h1.67Z"
           id="path179" />
      </g>
      <g
         id="g199">
        <path
           d="M52.2,100.15l1.13-1.95c-2.75-1.43-5.84-2.3-9.12-2.44v2.26c2.87.14,5.57.89,7.99,2.14Z"
           id="path180" />
        <path
           d="M59.78,107l1.95-1.13c-1.72-2.68-4-4.96-6.68-6.68l-1.13,1.95c2.34,1.52,4.33,3.51,5.85,5.85Z"
           id="path181" />
        <path
           d="M32.47,101.15l-1.13-1.95c-2.68,1.72-4.96,4-6.68,6.68l1.95,1.13c1.52-2.34,3.51-4.33,5.85-5.85Z"
           id="path182" />
        <path
           d="M62.92,116.73h2.26c-.15-3.28-1.01-6.37-2.44-9.12l-1.95,1.13c1.24,2.42,1.99,5.13,2.14,8Z"
           id="path183" />
        <path
           d="M42.2,98.01v-2.26c-3.28.15-6.37,1.01-9.12,2.44l1.13,1.95c2.42-1.24,5.13-1.99,8-2.14Z"
           id="path184" />
        <path
           d="M26.62,128.46l-1.95,1.13c1.72,2.68,4,4.96,6.68,6.68l1.13-1.95c-2.34-1.52-4.33-3.51-5.85-5.85Z"
           id="path185" />
        <path
           d="M53.93,134.31l1.13,1.95c2.68-1.72,4.96-4,6.68-6.68l-1.95-1.13c-1.52,2.34-3.51,4.33-5.85,5.85Z"
           id="path186" />
        <path
           d="M62.92,118.73c-.14,2.87-.89,5.57-2.14,8l1.95,1.13c1.43-2.75,2.3-5.84,2.44-9.12h-2.26Z"
           id="path187" />
        <path
           d="M23.48,118.73h-2.26c.15,3.28,1.01,6.37,2.44,9.12l1.95-1.13c-1.24-2.42-1.99-5.13-2.14-8Z"
           id="path188" />
        <path
           d="M25.62,108.74l-1.95-1.13c-1.43,2.75-2.3,5.84-2.44,9.12h2.26c.14-2.87.89-5.57,2.14-8Z"
           id="path189" />
        <path
           d="M52.2,100.24l1.13-1.95c-2.75-1.43-5.84-2.3-9.12-2.44v2.26c2.87.14,5.57.89,7.99,2.14Z"
           id="path190" />
        <path
           d="M59.78,107.09l1.95-1.13c-1.72-2.68-4-4.96-6.68-6.68l-1.13,1.95c2.34,1.52,4.33,3.51,5.85,5.85Z"
           id="path191" />
        <path
           d="M32.47,101.24l-1.13-1.95c-2.68,1.72-4.96,4-6.68,6.68l1.95,1.13c1.52-2.34,3.51-4.33,5.85-5.85Z"
           id="path192" />
        <path
           d="M62.92,116.82h2.26c-.15-3.28-1.01-6.37-2.44-9.12l-1.95,1.13c1.24,2.42,1.99,5.13,2.14,8Z"
           id="path193" />
        <path
           d="M42.2,98.1v-2.26c-3.28.15-6.37,1.01-9.12,2.44l1.13,1.95c2.42-1.24,5.13-1.99,8-2.14Z"
           id="path194" />
        <path
           d="M26.62,128.55l-1.95,1.13c1.72,2.68,4,4.96,6.68,6.68l1.13-1.95c-2.34-1.52-4.33-3.51-5.85-5.85Z"
           id="path195" />
        <path
           d="M53.93,134.4l1.13,1.95c2.68-1.72,4.96-4,6.68-6.68l-1.95-1.13c-1.52,2.34-3.51,4.33-5.85,5.85Z"
           id="path196" />
        <path
           d="M62.92,118.82c-.14,2.87-.89,5.57-2.14,8l1.95,1.13c1.43-2.75,2.3-5.84,2.44-9.12h-2.26Z"
           id="path197" />
        <path
           d="M23.48,118.82h-2.26c.15,3.28,1.01,6.37,2.44,9.12l1.95-1.13c-1.24-2.42-1.99-5.13-2.14-8Z"
           id="path198" />
        <path
           d="M25.62,108.82l-1.95-1.13c-1.43,2.75-2.3,5.84-2.44,9.12h2.26c.14-2.87.89-5.57,2.14-8Z"
           id="path199" />
      </g>
      <g
         id="g208">
        <path
           d="M27.28,144.76h-1.93l-.47-1.2c-.17-.44-.33-.76-.46-.96-.14-.2-.27-.33-.4-.39-.13-.06-.3-.08-.5-.08h-.2v2.64h-1.8v-6.77h3.06c.49,0,.9.11,1.21.34.31.23.54.5.68.83.14.33.21.63.21.93,0,.34-.06.63-.17.87-.12.24-.24.41-.37.52s-.27.21-.43.31c.19.13.35.28.47.45.12.17.29.53.51,1.06l.6,1.47ZM24.84,140.13c0-.31-.09-.53-.27-.65-.18-.12-.47-.19-.88-.19h-.38v1.63h.39c.44,0,.74-.05.9-.16.16-.11.24-.32.24-.63Z"
           id="path200" />
        <path
           d="M31.98,142.7h-3.08c.06.3.21.55.44.74.23.19.5.29.8.29.52,0,1.1-.17,1.73-.5v1.09c-.23.13-.5.25-.82.36-.32.11-.73.16-1.23.16-.54,0-1-.11-1.38-.34-.38-.23-.66-.54-.85-.93s-.28-.83-.28-1.33.09-.93.28-1.31.47-.69.85-.91.84-.33,1.38-.33c.35,0,.7.09,1.03.26.33.17.6.46.82.85.21.4.32.91.32,1.53v.35ZM30.52,141.83c0-.32-.07-.57-.21-.76-.14-.19-.34-.29-.6-.29s-.47.1-.62.29c-.16.19-.24.45-.24.76h1.67Z"
           id="path201" />
        <path
           d="M35.8,143.31c0,.46-.15.83-.44,1.11-.29.29-.73.43-1.31.43-.32,0-.61-.03-.86-.1-.25-.07-.53-.16-.82-.29v-1.25c.26.17.49.3.68.39s.4.13.63.13c.39,0,.58-.12.58-.36,0-.08-.03-.15-.08-.22-.06-.06-.15-.13-.29-.21-.14-.08-.32-.17-.56-.29-.29-.14-.53-.34-.73-.58-.2-.24-.3-.54-.3-.88,0-.25.07-.49.2-.71.13-.23.33-.41.6-.56.27-.14.59-.22.98-.22.09,0,.21,0,.35.02.14.01.32.05.54.12.22.06.42.15.62.26v1.22c-.09-.06-.17-.11-.23-.16-.06-.04-.14-.09-.25-.14-.1-.05-.22-.1-.36-.14-.14-.04-.28-.06-.43-.06-.18,0-.3.04-.37.12s-.1.16-.1.23.03.16.1.23c.07.07.22.16.46.26.34.15.62.3.82.46.21.16.35.33.44.52.09.19.13.41.13.67Z"
           id="path202" />
        <path
           d="M41.12,142.27c0,.49-.09.94-.28,1.32-.19.39-.47.69-.85.92-.38.22-.84.34-1.38.34s-1-.11-1.38-.34c-.38-.22-.66-.53-.85-.92-.19-.39-.28-.83-.28-1.32,0-.38.05-.71.16-1.02.1-.31.26-.58.48-.81.21-.24.48-.42.79-.54.31-.13.67-.19,1.08-.19s.78.06,1.09.19c.32.13.58.31.79.54.21.23.36.5.47.81.11.31.16.65.16,1.03ZM39.49,142.27c0-.39-.08-.7-.23-.93-.15-.22-.37-.33-.66-.33s-.5.11-.65.33c-.15.22-.23.53-.23.93s.08.7.23.93c.15.23.37.34.65.34s.5-.11.66-.34c.15-.23.23-.54.23-.93Z"
           id="path203" />
        <path
           d="M46.24,144.76h-1.55v-2.68c0-.27-.04-.51-.12-.72-.08-.2-.25-.3-.52-.3-.13,0-.24.03-.33.08-.1.05-.18.12-.26.21-.08.08-.14.17-.19.24-.05.08-.1.16-.16.25v2.92h-1.55v-4.97h1.55v.71c.24-.3.49-.5.73-.62.25-.12.52-.18.82-.18,1.05,0,1.57.71,1.57,2.14v2.92Z"
           id="path204" />
        <path
           d="M51.36,144.51c-.23.1-.44.18-.63.24-.19.06-.42.09-.69.09-.25,0-.43-.05-.53-.15-.1-.1-.17-.23-.21-.37-.17.15-.35.28-.55.38-.2.1-.47.15-.8.15s-.58-.06-.77-.19c-.2-.12-.33-.28-.41-.47-.08-.19-.12-.39-.12-.59,0-.31.07-.56.2-.76.14-.2.32-.36.55-.49.23-.13.53-.26.91-.4.21-.08.38-.14.49-.18.11-.04.19-.07.25-.09.05-.02.11-.05.17-.09,0-.24-.04-.43-.13-.57s-.27-.21-.56-.21c-.34,0-.65.08-.94.25-.29.17-.55.39-.79.65v-1.35c.19-.16.4-.28.62-.38.22-.1.46-.17.7-.22.24-.05.49-.07.74-.07.63,0,1.11.14,1.43.42s.48.66.48,1.15v1.92c0,.18.01.32.04.41.03.09.08.13.17.13.1,0,.23-.05.4-.14v.92ZM49.2,143.56v-1.18c-.37.17-.63.32-.8.46-.17.14-.25.32-.25.55,0,.17.04.29.13.38.08.09.18.13.29.13.11,0,.21-.03.32-.1.1-.07.21-.15.32-.24Z"
           id="path205" />
        <path
           d="M56.16,144.76h-1.55v-2.68c0-.27-.04-.51-.12-.72-.08-.2-.25-.3-.52-.3-.13,0-.24.03-.33.08-.1.05-.18.12-.26.21-.08.08-.14.17-.19.24-.05.08-.11.16-.16.25v2.92h-1.55v-4.97h1.55v.71c.24-.3.49-.5.73-.62.25-.12.52-.18.82-.18,1.05,0,1.57.71,1.57,2.14v2.92Z"
           id="path206" />
        <path
           d="M60.48,144.53c-.13.05-.27.11-.41.15-.14.05-.3.09-.48.12-.18.03-.38.05-.59.05-.48,0-.88-.09-1.21-.28-.33-.18-.59-.42-.76-.69-.18-.28-.3-.56-.37-.85-.07-.29-.1-.55-.1-.77s.03-.48.1-.77c.07-.29.19-.57.37-.84.17-.27.43-.5.76-.68.33-.18.74-.27,1.22-.27.32,0,.59.03.79.08.2.05.41.12.62.21v1.38c-.5-.18-.9-.27-1.18-.27s-.52.09-.73.28c-.21.19-.32.48-.32.88,0,.26.05.49.16.67.11.18.24.31.4.4.16.08.33.13.49.13s.33-.03.53-.08c.2-.05.44-.13.72-.22v1.38Z"
           id="path207" />
        <path
           d="M65.37,142.7h-3.08c.06.3.21.55.44.74.23.19.5.29.8.29.52,0,1.1-.17,1.73-.5v1.09c-.23.13-.5.25-.82.36-.32.11-.73.16-1.23.16-.54,0-1-.11-1.38-.34-.38-.23-.66-.54-.85-.93s-.28-.83-.28-1.33.09-.93.28-1.31.47-.69.85-.91.84-.33,1.38-.33c.35,0,.7.09,1.03.26.33.17.6.46.82.85.21.4.32.91.32,1.53v.35ZM63.92,141.83c0-.32-.07-.57-.21-.76-.14-.19-.34-.29-.6-.29s-.47.1-.62.29c-.16.19-.24.45-.24.76h1.67Z"
           id="path208" />
      </g>
      <g
         id="g218">
        <path
           d="M52.2,35.94l1.13-1.95c-2.75-1.43-5.84-2.3-9.12-2.44v2.26c2.87.14,5.57.89,7.99,2.14Z"
           id="path209" />
        <path
           d="M59.78,42.8l1.95-1.13c-1.72-2.68-4-4.96-6.68-6.68l-1.13,1.95c2.34,1.52,4.33,3.51,5.85,5.85Z"
           id="path210" />
        <path
           d="M32.47,36.94l-1.13-1.95c-2.68,1.72-4.96,4-6.68,6.68l1.95,1.13c1.52-2.34,3.51-4.33,5.85-5.85Z"
           id="path211" />
        <path
           d="M62.92,52.52h2.26c-.15-3.28-1.01-6.37-2.44-9.12l-1.95,1.13c1.24,2.42,1.99,5.13,2.14,8Z"
           id="path212" />
        <path
           d="M42.2,33.81v-2.26c-3.28.15-6.37,1.01-9.12,2.44l1.13,1.95c2.42-1.24,5.13-1.99,8-2.14Z"
           id="path213" />
        <path
           d="M26.62,64.25l-1.95,1.13c1.72,2.68,4,4.96,6.68,6.68l1.13-1.95c-2.34-1.52-4.33-3.51-5.85-5.85Z"
           id="path214" />
        <path
           d="M53.93,70.1l1.13,1.95c2.68-1.72,4.96-4,6.68-6.68l-1.95-1.13c-1.52,2.34-3.51,4.33-5.85,5.85Z"
           id="path215" />
        <path
           d="M62.92,54.52c-.14,2.87-.89,5.57-2.14,8l1.95,1.13c1.43-2.75,2.3-5.84,2.44-9.12h-2.26Z"
           id="path216" />
        <path
           d="M23.48,54.52h-2.26c.15,3.28,1.01,6.37,2.44,9.12l1.95-1.13c-1.24-2.42-1.99-5.13-2.14-8Z"
           id="path217" />
        <path
           d="M25.62,44.53l-1.95-1.13c-1.43,2.75-2.3,5.84-2.44,9.12h2.26c.14-2.87.89-5.57,2.14-8Z"
           id="path218" />
      </g>
      <g
         id="g224">
        <path
           d="M35.87,80.56c-.25.15-.5.26-.76.35s-.52.15-.78.19-.53.06-.81.06c-.52,0-.98-.08-1.39-.24s-.77-.4-1.07-.72c-.3-.32-.53-.69-.68-1.11s-.23-.89-.23-1.4c0-.58.09-1.09.27-1.53.18-.44.43-.8.75-1.09.32-.29.68-.5,1.09-.64s.84-.21,1.29-.21c.68,0,1.44.17,2.3.51v1.8c-.29-.21-.59-.38-.87-.52-.29-.14-.63-.21-1.02-.21-.35,0-.67.08-.97.23s-.54.38-.73.67c-.18.29-.27.63-.27,1.02,0,.34.08.66.24.94.16.28.38.51.67.68s.61.25.96.25c.29,0,.56-.04.82-.12s.47-.17.65-.27.36-.21.54-.35v1.71Z"
           id="path219" />
        <path
           d="M41.08,81.07h-1.55v-.71c-.22.27-.45.47-.69.6s-.53.2-.86.2c-.66,0-1.09-.22-1.28-.66s-.29-.93-.29-1.48v-2.92h1.55v2.69c0,.27.04.51.12.71.08.2.25.31.51.31.23,0,.41-.07.54-.22.13-.15.27-.33.41-.56v-2.92h1.55v4.97Z"
           id="path220" />
        <path
           d="M45.17,80.78c-.16.09-.38.17-.66.25s-.55.12-.81.12c-1.11,0-1.67-.62-1.67-1.86v-1.98h-.7v-.31l2.08-2.4h.18v1.49h1.48v1.22h-1.48v1.59c0,.19,0,.34.03.45s.08.21.17.29.23.11.42.11c.25,0,.57-.12.97-.35v1.37Z"
           id="path221" />
        <path
           d="M50.33,78.58c0,.49-.09.94-.28,1.32-.19.39-.47.69-.85.92-.38.22-.83.34-1.38.34s-1-.11-1.38-.34-.66-.53-.85-.92-.28-.83-.28-1.32c0-.37.05-.71.16-1.02s.26-.58.48-.81.48-.42.79-.54c.31-.13.67-.19,1.08-.19s.78.06,1.09.19.58.31.79.54c.21.23.36.5.47.81s.16.65.16,1.03ZM48.7,78.58c0-.39-.08-.7-.23-.93s-.37-.33-.66-.33-.5.11-.65.33-.23.53-.23.93.08.7.23.93c.15.23.37.34.65.34s.5-.11.66-.34.23-.54.23-.93Z"
           id="path222" />
        <path
           d="M53.71,75.56c-.24-.06-.43-.09-.57-.09-.17,0-.3.06-.39.19-.09.12-.14.3-.14.53v.18h.78v1.19h-.78v3.52h-1.55v-3.52h-.71v-1.19h.71v-.09c0-.35.06-.68.18-.99s.32-.57.59-.77c.28-.2.64-.3,1.1-.3.26,0,.52.03.78.09v1.26Z"
           id="path223" />
        <path
           d="M56.61,75.56c-.24-.06-.43-.09-.57-.09-.17,0-.3.06-.39.19-.09.12-.14.3-.14.53v.18h.78v1.19h-.78v3.52h-1.55v-3.52h-.71v-1.19h.71v-.09c0-.35.06-.68.18-.99s.32-.57.59-.77c.28-.2.64-.3,1.1-.3.26,0,.52.03.78.09v1.26Z"
           id="path224" />
      </g>
      <g
         id="g226">
        <path
           d="M13.72,68.25v5.79h3.31v1.03h-4.63v-6.82h1.32Z"
           id="path225" />
        <path
           d="M20.82,68.25c.64,0,1.16.18,1.56.55s.6.85.6,1.43-.2,1.07-.61,1.43-.94.55-1.6.55h-1.27v2.86h-1.32v-6.82h2.64ZM20.49,71.18c.35,0,.63-.08.82-.24s.3-.4.3-.72c0-.63-.4-.94-1.21-.94h-.9v1.9h.99Z"
           id="path226" />
      </g>
      <g
         id="g228">
        <path
           d="M65.1,68.25v2.87h3.54v-2.87h1.32v6.82h-1.32v-2.88h-3.54v2.88h-1.32v-6.82h1.32Z"
           id="path227" />
        <path
           d="M74,68.25c.64,0,1.16.18,1.55.55.4.37.6.85.6,1.43s-.2,1.07-.61,1.43c-.4.36-.94.55-1.6.55h-1.27v2.86h-1.32v-6.82h2.64ZM73.67,71.18c.35,0,.63-.08.82-.24.2-.16.3-.4.3-.72,0-.63-.4-.94-1.21-.94h-.9v1.9h.99Z"
           id="path228" />
      </g>
      <g
         id="g234">
        <path
           d="M34.22,22.65c.5,0,.91.13,1.22.39s.47.59.47.98c0,.25-.07.47-.2.66s-.32.34-.57.45v.05c.38.09.68.26.89.51s.32.55.32.89c0,.3-.08.57-.23.81s-.37.42-.64.54-.6.18-.97.18h-2.29v-5.46h2ZM33.94,24.91c.28,0,.5-.07.66-.2s.24-.32.24-.55c0-.21-.07-.38-.22-.5s-.34-.19-.59-.19h-.76v1.44h.66ZM34.19,27.28c.36,0,.63-.07.81-.2s.27-.33.27-.59c0-.23-.09-.41-.27-.55s-.42-.2-.73-.2h-.99v1.54h.91Z"
           id="path229" />
        <path
           d="M37.61,24.46l.86,1.96.88-1.96h1.03l-2.52,5.49h-1.03l1.16-2.51-1.42-2.98h1.04Z"
           id="path230" />
        <path
           d="M42.67,24.39c.52,0,.94.17,1.26.52.32.35.48.8.48,1.36,0,.37-.07.7-.22.98-.15.29-.36.51-.64.68s-.59.24-.94.24c-.28,0-.57-.07-.86-.21v1.98h-.96v-5.49h.95v.23c.29-.2.6-.3.93-.3ZM41.75,27.26c.24.14.46.21.67.21.3,0,.54-.11.73-.32s.27-.49.27-.84c0-.37-.08-.66-.24-.88s-.39-.32-.69-.32c-.11,0-.22.02-.32.06s-.24.12-.41.24v1.85Z"
           id="path231" />
        <path
           d="M46.41,24.39c.47,0,.83.1,1.07.3.25.2.37.48.37.83v1.79c0,.14.06.21.17.21.05,0,.11-.02.2-.06.08-.04.16-.09.21-.14v.55c-.34.21-.64.31-.92.31-.17,0-.3-.03-.4-.09-.09-.06-.16-.16-.19-.3-.37.26-.74.39-1.11.39-.26,0-.49-.09-.68-.27-.19-.18-.28-.39-.28-.64,0-.31.09-.56.28-.75s.52-.34.98-.48l.78-.23v-.17c0-.36-.22-.54-.65-.54-.22,0-.44.05-.66.15s-.42.25-.6.45v-.86c.4-.31.87-.47,1.42-.47ZM45.82,27.13c0,.13.04.24.13.32.08.08.19.12.31.12.21,0,.42-.1.63-.29v-.96c-.27.09-.48.18-.63.26s-.26.16-.34.25c-.07.08-.11.19-.11.3Z"
           id="path232" />
        <path
           d="M50.06,24.39c.2,0,.39.02.57.07.18.05.36.12.56.22v.77c-.18-.12-.38-.21-.59-.28-.21-.07-.39-.11-.56-.11-.14,0-.25.03-.32.08s-.12.13-.12.22c0,.05.03.11.1.16.06.05.24.15.54.3.42.21.71.41.88.58s.25.39.25.64c0,.35-.12.63-.37.83-.25.2-.58.3-.99.3-.26,0-.5-.03-.73-.09-.23-.06-.41-.13-.56-.21v-.8c.47.26.86.39,1.18.39.16,0,.3-.03.4-.09s.15-.14.15-.23c0-.06-.02-.11-.05-.16-.04-.05-.09-.1-.16-.14-.07-.05-.3-.17-.68-.36-.29-.14-.51-.29-.65-.46s-.21-.36-.21-.59c0-.32.13-.58.38-.77.25-.19.58-.29,1-.29Z"
           id="path233" />
        <path
           d="M53.21,24.39c.2,0,.39.02.57.07.18.05.36.12.56.22v.77c-.18-.12-.38-.21-.59-.28-.21-.07-.39-.11-.56-.11-.14,0-.25.03-.32.08s-.12.13-.12.22c0,.05.03.11.1.16.06.05.24.15.54.3.42.21.71.41.88.58s.25.39.25.64c0,.35-.12.63-.37.83-.25.2-.58.3-.99.3-.26,0-.5-.03-.73-.09-.23-.06-.41-.13-.56-.21v-.8c.47.26.86.39,1.18.39.16,0,.3-.03.4-.09s.15-.14.15-.23c0-.06-.02-.11-.05-.16-.04-.05-.09-.1-.16-.14-.07-.05-.3-.17-.68-.36-.29-.14-.51-.29-.65-.46s-.21-.36-.21-.59c0-.32.13-.58.38-.77.25-.19.58-.29,1-.29Z"
           id="path234" />
      </g>
      <g
         id="g239">
        <path
           d="M36.53,206.84c0,.42-.1.79-.29,1.1-.19.31-.46.55-.8.71-.34.17-.73.25-1.17.25-.12,0-.27,0-.45-.03-.18-.02-.42-.07-.71-.15-.3-.08-.6-.2-.93-.36v-1.66c.3.21.6.39.89.53.29.14.6.21.93.21.31,0,.5-.06.6-.17.09-.12.14-.22.14-.32,0-.18-.08-.34-.23-.46-.15-.12-.38-.25-.67-.39-.33-.16-.61-.33-.86-.51-.25-.18-.45-.41-.6-.69-.16-.28-.23-.6-.23-.98s.08-.69.24-.99c.16-.29.4-.53.72-.71.32-.18.72-.26,1.19-.26.33,0,.64.04.92.11s.51.16.7.25c.18.09.31.16.38.21v1.59c-.24-.2-.51-.38-.81-.53s-.62-.23-.96-.23c-.22,0-.39.05-.49.15-.1.1-.15.22-.15.36,0,.13.05.25.15.35.1.1.28.22.54.36.46.24.82.46,1.1.66.28.2.49.42.65.68.16.26.23.57.23.96Z"
           id="path235" />
        <path
           d="M38.78,208.81h-1.55v-6.77h1.55v6.77Z"
           id="path236" />
        <path
           d="M44.32,206.32c0,.49-.09.94-.28,1.32-.19.39-.47.69-.85.92-.38.22-.84.34-1.38.34s-1-.11-1.38-.34c-.38-.22-.66-.53-.85-.92-.19-.39-.28-.83-.28-1.32,0-.38.05-.71.16-1.02.1-.31.26-.58.48-.81.21-.24.48-.42.79-.54.31-.13.67-.19,1.08-.19s.78.06,1.09.19c.32.13.58.31.79.54.21.23.36.5.47.81.11.31.16.65.16,1.03ZM42.69,206.32c0-.39-.08-.7-.23-.93-.15-.22-.37-.33-.66-.33s-.5.11-.65.33c-.15.22-.23.53-.23.93s.08.7.23.93c.15.23.37.34.65.34s.5-.11.66-.34c.15-.23.23-.54.23-.93Z"
           id="path237" />
        <path
           d="M49.57,206.29c0,.33-.04.65-.12.96-.08.31-.21.59-.38.84-.17.25-.39.45-.66.59-.27.15-.58.22-.93.22-.29,0-.51-.03-.68-.1-.16-.07-.33-.16-.49-.27v2.55h-1.55v-7.23h1.55v.45c.16-.15.33-.28.51-.38s.44-.15.76-.15.63.09.94.27c.31.18.56.46.76.84.2.38.3.86.3,1.43ZM47.95,206.33c0-.3-.04-.54-.12-.73-.08-.19-.19-.32-.32-.41s-.27-.12-.41-.12c-.18,0-.33.03-.45.1-.12.07-.23.15-.33.25v1.9c.05.03.11.07.17.11.06.04.12.08.18.11s.13.05.2.07.15.03.23.03c.24,0,.45-.12.61-.35s.25-.55.25-.96Z"
           id="path238" />
        <path
           d="M54.51,206.75h-3.08c.06.3.21.55.44.74.23.19.5.29.8.29.52,0,1.1-.17,1.73-.5v1.09c-.23.13-.5.25-.82.36-.32.11-.73.16-1.23.16-.54,0-1-.11-1.38-.34-.38-.23-.66-.54-.85-.93s-.28-.83-.28-1.33.09-.93.28-1.31.47-.69.85-.91.84-.33,1.38-.33c.35,0,.7.09,1.03.26.33.17.6.46.82.85.21.4.32.91.32,1.53v.35ZM53.06,205.88c0-.32-.07-.57-.21-.76-.14-.19-.34-.29-.6-.29s-.47.1-.62.29c-.16.19-.24.45-.24.76h1.67Z"
           id="path239" />
      </g>
      <g
         id="g243">
        <path
           d="M30.13,192.34l-3.2,3.2c.46.5.93.98,1.43,1.43l3.2-3.2c-.5-.45-.98-.93-1.43-1.43Z"
           id="path240" />
        <path
           d="M56.27,192.34c-.45.5-.93.98-1.43,1.43l3.2,3.2c.5-.46.98-.93,1.43-1.43l-3.2-3.2Z"
           id="path241" />
        <path
           d="M30.13,169.07c.45-.5.93-.98,1.43-1.43l-3.2-3.2c-.5.46-.98.93-1.43,1.43l3.2,3.2Z"
           id="path242" />
        <path
           d="M58.03,164.44l-3.2,3.2c.5.45.98.93,1.43,1.43l3.2-3.2c-.46-.5-.93-.98-1.43-1.43Z"
           id="path243" />
      </g>
      <g
         id="g246">
        <path
           d="M13.7,195.7c-.36.3-.77.75-1.21,1.34-.44.59-.76,1.11-.94,1.56.25-.11.51-.16.78-.16.35,0,.67.09.96.27.29.18.51.42.67.74.16.31.24.66.24,1.05,0,.41-.09.78-.28,1.12-.19.34-.45.6-.78.8-.33.19-.69.29-1.08.29-.66,0-1.2-.22-1.61-.67-.41-.45-.62-1.03-.62-1.75s.21-1.48.64-2.29c.43-.81,1.01-1.58,1.75-2.29h1.49ZM11.09,200.49c0,.32.09.58.27.78s.41.31.69.31.49-.1.66-.29c.17-.19.25-.45.25-.77,0-.3-.09-.55-.26-.75-.17-.2-.4-.29-.68-.29s-.49.1-.67.29c-.18.19-.27.43-.27.72Z"
           id="path244" />
        <path
           d="M17.94,198.15v-2.36h1.2v6.82h-2.11c-.73,0-1.31-.21-1.75-.63s-.66-.99-.66-1.72c0-.43.1-.82.31-1.17s.48-.63.84-.83.74-.3,1.15-.3c.32,0,.66.06,1.02.19ZM17.31,201.69h.63v-2.64c-.25-.13-.5-.19-.77-.19-.4,0-.72.12-.96.38-.24.25-.36.58-.36.99,0,.98.49,1.47,1.46,1.47Z"
           id="path245" />
        <path
           d="M21.14,195.79v2.55c.35-.25.76-.38,1.21-.38.4,0,.76.1,1.09.29.33.2.58.47.76.83s.27.75.27,1.19c0,.75-.22,1.34-.67,1.77-.45.43-1.06.65-1.83.65-.7,0-1.37-.13-2.03-.39v-6.52h1.2ZM21.14,201.66c.26.09.56.13.9.13.37,0,.66-.13.88-.4s.32-.64.32-1.12c0-.43-.11-.77-.33-1.03-.22-.25-.51-.38-.86-.38-.17,0-.32.03-.46.09-.14.06-.29.16-.45.29v2.42Z"
           id="path246" />
      </g>
      <g
         id="g250">
        <path
           d="M8.16,157.99v6.82h-1.25v-6.82h1.25Z"
           id="path247" />
        <path
           d="M12.08,157.9c.65,0,1.16.18,1.55.55s.57.86.57,1.48c0,.47-.14.98-.43,1.52s-.79,1.27-1.5,2.17h2.34v1.18h-4.42v-.14c.51-.63.96-1.21,1.33-1.71s.66-.93.86-1.26.35-.62.43-.85.13-.48.13-.73c0-.31-.1-.58-.3-.79s-.44-.32-.73-.32c-.51,0-1.05.29-1.6.88v-1.34c.58-.43,1.18-.65,1.78-.65Z"
           id="path248" />
        <path
           d="M18.34,160.36v-2.36h1.2v6.82h-2.11c-.73,0-1.31-.21-1.75-.63s-.66-.99-.66-1.72c0-.43.1-.82.31-1.17s.48-.63.84-.83.74-.3,1.15-.3c.32,0,.66.06,1.02.19ZM17.71,163.9h.63v-2.64c-.25-.13-.5-.19-.77-.19-.4,0-.72.13-.96.38s-.36.58-.36.99c0,.98.49,1.47,1.46,1.47Z"
           id="path249" />
        <path
           d="M21.53,157.99v2.55c.35-.25.76-.38,1.21-.38.4,0,.76.1,1.09.3s.58.47.76.83.27.75.27,1.19c0,.75-.22,1.34-.67,1.77s-1.06.65-1.83.65c-.7,0-1.37-.13-2.03-.39v-6.52h1.2ZM21.53,163.86c.26.09.56.13.9.13.37,0,.66-.13.88-.4s.32-.64.32-1.12c0-.43-.11-.77-.33-1.03s-.51-.38-.86-.38c-.17,0-.32.03-.46.09s-.29.16-.45.29v2.42Z"
           id="path250" />
      </g>
      <g
         id="g254">
        <path
           d="M63.84,157.99v6.82h-1.25v-6.82h1.25Z"
           id="path251" />
        <path
           d="M68.11,157.9c.61,0,1.11.18,1.49.53s.58.81.58,1.38c0,.62-.28,1.1-.84,1.45.35.19.61.42.76.69s.23.59.23.96-.1.72-.29,1.02c-.19.3-.46.54-.8.71s-.72.25-1.14.25c-.65,0-1.19-.19-1.61-.56-.42-.37-.63-.85-.63-1.43,0-.39.08-.72.25-.98s.42-.49.75-.67c-.56-.35-.84-.84-.84-1.46,0-.56.19-1.02.58-1.37.39-.35.89-.53,1.5-.53ZM67.14,162.85c0,.34.09.6.26.79s.41.29.71.29.53-.1.7-.29.26-.45.26-.77-.09-.58-.26-.79-.4-.31-.68-.31c-.29,0-.53.1-.71.29s-.27.46-.27.78ZM67.28,159.83c0,.29.08.53.23.72s.35.28.6.28.43-.1.59-.29.23-.43.23-.71c0-.3-.07-.53-.22-.7-.15-.17-.35-.26-.6-.26s-.46.08-.61.25c-.15.17-.22.41-.22.71Z"
           id="path252" />
        <path
           d="M74.02,160.35v-2.36h1.2v6.82h-2.11c-.73,0-1.31-.21-1.75-.63-.44-.42-.66-.99-.66-1.72,0-.43.1-.82.31-1.17.2-.35.48-.63.84-.83s.74-.3,1.15-.3c.32,0,.66.06,1.02.19ZM73.39,163.89h.63v-2.64c-.25-.13-.5-.19-.77-.19-.4,0-.72.13-.96.38s-.36.58-.36.99c0,.98.49,1.47,1.46,1.47Z"
           id="path253" />
        <path
           d="M77.22,157.99v2.55c.36-.25.76-.38,1.21-.38.4,0,.76.1,1.09.3s.58.47.76.83.27.75.27,1.19c0,.75-.22,1.34-.67,1.77-.45.43-1.06.65-1.83.65-.7,0-1.37-.13-2.03-.39v-6.52h1.2ZM77.22,163.86c.26.09.56.13.9.13.37,0,.66-.13.88-.4.22-.27.32-.64.32-1.12,0-.43-.11-.77-.33-1.03-.22-.26-.51-.38-.86-.38-.17,0-.32.03-.46.09-.14.06-.29.16-.45.29v2.42Z"
           id="path254" />
      </g>
      <g
         id="g258">
        <path
           d="M63.48,195.7c.65,0,1.16.18,1.54.55.38.37.57.86.57,1.48,0,.47-.14.98-.43,1.52-.28.55-.79,1.27-1.5,2.17h2.34v1.18h-4.42v-.14c.51-.63.96-1.21,1.33-1.71.37-.51.66-.93.86-1.26.2-.33.34-.62.43-.85.08-.23.13-.48.13-.73,0-.31-.1-.58-.3-.79-.2-.21-.44-.32-.73-.32-.51,0-1.05.29-1.6.88v-1.34c.58-.43,1.18-.65,1.78-.65Z"
           id="path255" />
        <path
           d="M70.27,195.7v3.98h.58v1h-.58v1.93h-1.25v-1.93h-2.79v-.8l3.32-4.18h.72ZM68.99,197.77l-1.51,1.91h1.54v-1.91h-.03Z"
           id="path256" />
        <path
           d="M74.62,198.15v-2.36h1.2v6.82h-2.11c-.73,0-1.31-.21-1.75-.63-.44-.42-.66-.99-.66-1.72,0-.43.1-.82.3-1.17.2-.35.48-.63.84-.83s.74-.3,1.16-.3c.32,0,.66.06,1.02.19ZM73.99,201.69h.63v-2.64c-.25-.13-.5-.19-.77-.19-.4,0-.72.13-.96.38-.24.25-.36.58-.36.99,0,.98.49,1.47,1.46,1.47Z"
           id="path257" />
        <path
           d="M77.82,195.79v2.55c.35-.25.76-.38,1.21-.38.4,0,.76.1,1.09.3.33.2.58.47.76.83s.27.75.27,1.19c0,.75-.22,1.34-.67,1.77-.45.43-1.06.65-1.83.65-.7,0-1.37-.13-2.03-.39v-6.52h1.2ZM77.82,201.66c.26.09.56.13.9.13.37,0,.66-.13.88-.4.22-.27.33-.64.33-1.12,0-.43-.11-.77-.33-1.03-.22-.26-.51-.38-.86-.38-.17,0-.32.03-.46.09-.14.06-.29.16-.45.29v2.42Z"
           id="path258" />
      </g>
      <path
         d="M82.82,233.72c-.31-8.93-6.53-15.93-14.16-15.93H17.74c-7.63,0-13.85,7-14.16,15.95l-.06,6.83v21.06l.07,61.87h0v11.26c0,3.5,2.84,6.34,6.34,6.34h13.29s40.05,0,40.05,0h0s13.29,0,13.29,0c3.5,0,6.34-2.84,6.34-6.34v-94.2l-.06-6.84ZM81.86,324.48v10.28c0,2.93-2.38,5.31-5.31,5.31H17.78s0,0,0,0h-7.86c-2.93,0-5.31-2.38-5.31-5.31v-10.28h0l-.07-62.85v-21.06l.06-6.81c.29-8.38,6.06-14.94,13.14-14.94h50.92c7.07,0,12.84,6.56,13.14,14.93l.06,6.82v83.92Z"
         id="path259" />
    </g>
    <path
       d="m 39.994904,354.98125 q 0,0.97182 -0.304689,1.56038 -0.300782,0.58858 -0.710941,0.95358 -0.582034,0.53381 -1.628914,0.53381 h -2.92189 v -6.32369 h 2.250011 q 0.507816,0 0.867192,0.0639 0.363283,0.0594 0.652347,0.17337 0.289064,0.10946 0.49219,0.25095 0.203126,0.13687 0.363283,0.29655 0.277345,0.26464 0.484378,0.62508 0.210938,0.36044 0.332033,0.83495 0.125,0.4745 0.125,1.03113 z m -1.660164,-0.0821 q 0,-0.77107 -0.253908,-1.19995 -0.250001,-0.43344 -0.605472,-0.57944 -0.351564,-0.146 -0.718753,-0.146 h -0.695316 v 3.74584 h 0.695316 q 0.640628,0 1.10938,-0.35587 0.468753,-0.35588 0.468753,-1.46458 z m 4.468772,2.34515 q 0,0.84407 -0.117188,1.43264 -0.113282,0.58857 -0.515628,0.98095 -0.402345,0.39694 -1.199224,0.39694 -0.292971,0 -0.585941,-0.0639 l -0.246095,-1.52388 q 0.308596,-0.009 0.503909,-0.0411 0.195314,-0.0319 0.316408,-0.14601 0.121094,-0.10945 0.171876,-0.34219 0.03906,-0.1825 0.03906,-1.04482 v -5.18762 h 1.632821 z m 3.925801,-0.80301 h -2.558607 v -1.52389 h 2.558607 z m 5.242214,-0.97182 h -2.246105 v 2.55958 h -1.632821 v -6.32369 h 3.878926 v 1.2684 h -2.246105 v 1.22276 h 2.246105 z"
       id="text1"
       style="font-weight:bold;font-size:8.00004px;font-family:'Gill Sans';-inkscape-font-specification:'Gill Sans Bold';fill:#1a1a1a;stroke-width:0.505482"
       aria-label="DJ-F" />
  </g>
  <g
     inkscape:groupmode="layer"
     id="layer1"
     inkscape:label="components"
     style="display:none">
    <circle
       id="Out R"
       data-name="Right Out"
       cx="65.199997"
       cy="314.64999"
       r="11.34"
       style="fill:#0000ff" />
    <circle
       id="Out L"
       data-name="Left Out"
       cx="20.700001"
       cy="314.64999"
       r="11.34"
       style="fill:#0000ff" />
    <circle
       id="InR"
       cx="65.199997"
       cy="275"
       r="11.34"
       style="fill:#00ff00"
       data-name="Right In" />
    <circle
       id="InL"
       cx="20.700001"
       cy="275"
       r="11.34"
       style="fill:#00ff00"
       data-name="Left In" />
    <circle
       id="ResonanceCv"
       cx="65.199997"
       cy="235.28"
       r="11.34"
       style="fill:#00ff00"
       data-name="Resonance Cv In" />
    <circle
       id="CutoffCv"
       cx="20.700001"
       cy="235.25"
       r="11.34"
       style="fill:#00ff00"
       data-name="Cutoff Cv In" />
    <circle
       id="Slope"
       cx="43.200001"
       cy="180.7"
       r="17.01"
       style="fill:#ff0000"
       data-name="Slope@6db/Oct@12db/Oct@18db/Oct@24db/Oct" />
    <circle
       id="Resonance"
       cx="43.200001"
       cy="117.64"
       r="17.01"
       style="fill:#ff0000"
       data-name="Resonance!0!100!%" />
    <circle
       id="Cutoff"
       cx="43.200001"
       cy="53.299999"
       r="17.01"
       style="fill:#ff0000"
       data-name="Cutoff!0!100!%" />
  </g>
</svg>
